<svg width="1000" height="600" viewBox="0 0 1000 600" fill="none" xmlns="http://www.w3.org/2000/svg">
<g clip-path="url(#clip0_406_3510)">
<rect width="1000" height="600" fill="#F6F6F6"/>
<path d="M37 259.5H226.5V354C226.5 362.56 219.56 369.5 211 369.5H21.5V275C21.5 266.44 28.4396 259.5 37 259.5Z" fill="white" stroke="black"/>
<path d="M265 281.5H621.5V326C621.5 334.56 614.56 341.5 606 341.5H249.5V297C249.5 288.44 256.44 281.5 265 281.5Z" fill="white" stroke="black"/>
<path d="M660 281.5H978.5V326C978.5 334.56 971.56 341.5 963 341.5H644.5V297C644.5 288.44 651.44 281.5 660 281.5Z" fill="white" stroke="black"/>
<path d="M42.131 297.17C43.576 297.17 44.528 296.388 44.885 295.385V297H46.33V288.5H44.885V293.09C44.885 294.875 43.78 295.946 42.641 295.946H42.488C41.264 295.946 40.669 295.215 40.669 293.77V288.5H39.224V294.11C39.224 295.895 40.227 297.17 42.131 297.17ZM51.7425 297.17C53.6805 297.17 55.0235 296.184 55.0235 294.62C55.0235 293.124 53.9865 292.478 52.7285 292.223L51.3855 291.934C50.4675 291.747 50.0765 291.407 50.0765 290.761C50.0765 290.115 50.7055 289.554 51.7255 289.554H51.8785C53.0005 289.554 53.5615 290.285 53.6635 291.101H55.1085C55.0745 289.571 53.9865 288.33 51.7935 288.33C50.1275 288.33 48.6315 289.231 48.6315 290.914C48.6315 292.359 49.7195 293.022 51.0625 293.294L52.3035 293.549C53.2555 293.736 53.5785 294.127 53.5785 294.705C53.5785 295.47 52.8645 295.946 51.8785 295.946H51.7255C50.6715 295.946 49.8385 295.47 49.7365 294.399H48.2915C48.3255 295.997 49.5155 297.17 51.7425 297.17ZM60.6059 297.17C62.3569 297.17 63.7849 296.218 64.1079 294.518H62.6629C62.4419 295.487 61.6599 295.946 60.7249 295.946H60.5889C59.4329 295.946 58.1919 295.045 58.1239 292.954H64.1249V292.104C64.1249 289.894 62.7479 288.33 60.5719 288.33C58.5829 288.33 56.6789 289.775 56.6789 292.733C56.6789 295.691 58.4979 297.17 60.6059 297.17ZM58.1919 291.781C58.4809 290.098 59.5519 289.554 60.5039 289.554H60.6399C61.7449 289.554 62.6119 290.302 62.6799 291.781H58.1919ZM72.7145 297.17C74.1085 297.17 75.1795 296.405 75.5195 295.64C75.5195 295.844 75.5365 296.592 75.6045 297H76.9645C76.8795 296.405 76.8795 295.64 76.8795 295.13V291.56C76.8795 289.826 75.7405 288.33 73.4965 288.33C71.6095 288.33 70.2155 289.384 70.1135 290.931H71.5585C71.6605 290.013 72.4765 289.554 73.4285 289.554H73.5475C74.7205 289.554 75.4345 290.285 75.4345 291.56V291.849L72.9865 292.053C71.6265 292.155 69.9435 292.733 69.9435 294.654C69.9435 296.099 71.1335 297.17 72.7145 297.17ZM72.8675 295.946C72.0175 295.946 71.3885 295.368 71.3885 294.586C71.3885 293.753 72.1365 293.243 73.2075 293.158L75.4345 292.988V293.94C75.4345 295.045 74.1085 295.946 73.0205 295.946H72.8675ZM80.8634 300.4V295.759C81.3054 296.575 82.3934 297.17 83.5664 297.17C85.7084 297.17 87.3744 295.521 87.3744 292.75C87.3744 289.979 85.8274 288.33 83.6684 288.33C82.5124 288.33 81.3054 288.925 80.8634 289.741V288.5H79.4184V300.4H80.8634ZM83.3624 295.946C81.9514 295.946 80.8634 294.722 80.8634 292.75C80.8634 290.778 81.9514 289.554 83.3624 289.554H83.4814C84.9434 289.554 85.9294 290.778 85.9294 292.75C85.9294 294.722 84.9434 295.946 83.4814 295.946H83.3624ZM90.9239 300.4V295.759C91.3659 296.575 92.4539 297.17 93.6269 297.17C95.7689 297.17 97.4349 295.521 97.4349 292.75C97.4349 289.979 95.8879 288.33 93.7289 288.33C92.5729 288.33 91.3659 288.925 90.9239 289.741V288.5H89.4789V300.4H90.9239ZM93.4229 295.946C92.0119 295.946 90.9239 294.722 90.9239 292.75C90.9239 290.778 92.0119 289.554 93.4229 289.554H93.5419C95.0039 289.554 95.9899 290.778 95.9899 292.75C95.9899 294.722 95.0039 295.946 93.5419 295.946H93.4229ZM106.271 298.275V297H98.7405V298.275H106.271ZM109.619 286.97V285.236H108.004V286.97H109.619ZM109.534 297V288.5H108.089V297H109.534ZM115.336 297.17C116.492 297.17 117.699 296.575 118.158 295.759V297H119.603V285.1H118.158V289.741C117.699 288.925 116.611 288.33 115.455 288.33C113.296 288.33 111.63 289.979 111.63 292.75C111.63 295.521 113.177 297.17 115.336 297.17ZM115.523 295.946C114.061 295.946 113.092 294.722 113.092 292.75C113.092 290.778 114.061 289.554 115.523 289.554H115.642C117.07 289.554 118.158 290.778 118.158 292.75C118.158 294.722 117.07 295.946 115.642 295.946H115.523ZM128.645 297.17C130.039 297.17 131.11 296.405 131.45 295.64C131.45 295.844 131.467 296.592 131.535 297H132.895C132.81 296.405 132.81 295.64 132.81 295.13V291.56C132.81 289.826 131.671 288.33 129.427 288.33C127.54 288.33 126.146 289.384 126.044 290.931H127.489C127.591 290.013 128.407 289.554 129.359 289.554H129.478C130.651 289.554 131.365 290.285 131.365 291.56V291.849L128.917 292.053C127.557 292.155 125.874 292.733 125.874 294.654C125.874 296.099 127.064 297.17 128.645 297.17ZM128.798 295.946C127.948 295.946 127.319 295.368 127.319 294.586C127.319 293.753 128.067 293.243 129.138 293.158L131.365 292.988V293.94C131.365 295.045 130.039 295.946 128.951 295.946H128.798ZM136.794 297V292.41C136.794 290.727 137.814 289.554 139.225 289.554H139.361C140.619 289.554 141.18 290.336 141.18 291.696V297H142.625V291.356C142.625 289.486 141.469 288.33 139.599 288.33C138.222 288.33 137.287 288.942 136.794 289.775V288.5H135.349V297H136.794ZM148.357 297.17C149.513 297.17 150.72 296.575 151.179 295.759V297H152.624V285.1H151.179V289.741C150.72 288.925 149.632 288.33 148.476 288.33C146.317 288.33 144.651 289.979 144.651 292.75C144.651 295.521 146.198 297.17 148.357 297.17ZM148.544 295.946C147.082 295.946 146.113 294.722 146.113 292.75C146.113 290.778 147.082 289.554 148.544 289.554H148.663C150.091 289.554 151.179 290.778 151.179 292.75C151.179 294.722 150.091 295.946 148.663 295.946H148.544ZM162.193 297.17C164.131 297.17 165.474 296.184 165.474 294.62C165.474 293.124 164.437 292.478 163.179 292.223L161.836 291.934C160.918 291.747 160.527 291.407 160.527 290.761C160.527 290.115 161.156 289.554 162.176 289.554H162.329C163.451 289.554 164.012 290.285 164.114 291.101H165.559C165.525 289.571 164.437 288.33 162.244 288.33C160.578 288.33 159.082 289.231 159.082 290.914C159.082 292.359 160.17 293.022 161.513 293.294L162.754 293.549C163.706 293.736 164.029 294.127 164.029 294.705C164.029 295.47 163.315 295.946 162.329 295.946H162.176C161.122 295.946 160.289 295.47 160.187 294.399H158.742C158.776 295.997 159.966 297.17 162.193 297.17ZM171.056 297.17C172.807 297.17 174.235 296.218 174.558 294.518H173.113C172.892 295.487 172.11 295.946 171.175 295.946H171.039C169.883 295.946 168.642 295.045 168.574 292.954H174.575V292.104C174.575 289.894 173.198 288.33 171.022 288.33C169.033 288.33 167.129 289.775 167.129 292.733C167.129 295.691 168.948 297.17 171.056 297.17ZM168.642 291.781C168.931 290.098 170.002 289.554 170.954 289.554H171.09C172.195 289.554 173.062 290.302 173.13 291.781H168.642ZM180.222 297.17C182.126 297.17 183.435 296.031 183.656 294.229H182.211C182.041 295.215 181.327 295.946 180.307 295.946H180.154C178.454 295.946 177.655 294.45 177.655 292.75C177.655 291.05 178.454 289.554 180.154 289.554H180.307C181.327 289.554 182.041 290.268 182.211 291.271H183.656C183.486 289.452 182.126 288.33 180.222 288.33C177.638 288.33 176.21 290.251 176.21 292.75C176.21 295.249 177.638 297.17 180.222 297.17ZM187.147 297V292.75C187.147 290.914 188.099 289.792 189.663 289.792H190.343V288.415H189.578C188.456 288.415 187.419 289.095 187.062 290.387V288.5H185.702V297H187.147ZM195.095 297.17C196.846 297.17 198.274 296.218 198.597 294.518H197.152C196.931 295.487 196.149 295.946 195.214 295.946H195.078C193.922 295.946 192.681 295.045 192.613 292.954H198.614V292.104C198.614 289.894 197.237 288.33 195.061 288.33C193.072 288.33 191.168 289.775 191.168 292.733C191.168 295.691 192.987 297.17 195.095 297.17ZM192.681 291.781C192.97 290.098 194.041 289.554 194.993 289.554H195.129C196.234 289.554 197.101 290.302 197.169 291.781H192.681ZM205.267 297V295.725H203.618C203.108 295.725 202.938 295.555 202.938 295.045V289.741H205.012V288.5H202.938V285.746H201.493V288.5H199.589V289.741H201.493V295.249C201.493 296.405 202.122 297 203.278 297H205.267ZM43.95 320V318.725H42.301C41.791 318.725 41.621 318.555 41.621 318.045V312.741H43.695V311.5H41.621V308.746H40.176V311.5H38.272V312.741H40.176V318.249C40.176 319.405 40.805 320 41.961 320H43.95ZM49.0694 320.17C51.3304 320.17 53.0984 318.385 53.0984 315.75C53.0984 313.115 51.3304 311.33 49.0694 311.33C46.8084 311.33 45.0574 313.115 45.0574 315.75C45.0574 318.385 46.8084 320.17 49.0694 320.17ZM49.0014 318.946C47.5734 318.946 46.5024 317.773 46.5024 315.75C46.5024 313.727 47.5734 312.554 49.0014 312.554H49.1544C50.5824 312.554 51.6534 313.727 51.6534 315.75C51.6534 317.773 50.5824 318.946 49.1544 318.946H49.0014ZM62.6103 323.74C65.1943 323.74 66.7073 322.125 66.7073 319.983V311.5H65.2623V312.741C64.8543 311.976 63.9193 311.33 62.6103 311.33C60.5703 311.33 58.8703 312.809 58.8703 315.699C58.8703 318.589 60.6043 320 62.6103 320C63.9193 320 64.8033 319.354 65.2623 318.589V319.83C65.2623 321.734 64.1403 322.516 62.6953 322.516H62.5253C61.2843 322.516 60.3323 322.057 60.1453 321.139H58.7003C58.8703 322.652 60.2133 323.74 62.6103 323.74ZM62.6783 318.776C61.3523 318.776 60.3153 317.824 60.3153 315.699C60.3153 313.574 61.4203 312.554 62.7293 312.554H62.8823C64.1743 312.554 65.2623 313.744 65.2623 315.699C65.2623 317.654 64.1063 318.776 62.8143 318.776H62.6783ZM72.725 320.17C74.476 320.17 75.904 319.218 76.227 317.518H74.782C74.561 318.487 73.779 318.946 72.844 318.946H72.708C71.552 318.946 70.311 318.045 70.243 315.954H76.244V315.104C76.244 312.894 74.867 311.33 72.691 311.33C70.702 311.33 68.798 312.775 68.798 315.733C68.798 318.691 70.617 320.17 72.725 320.17ZM70.311 314.781C70.6 313.098 71.671 312.554 72.623 312.554H72.759C73.864 312.554 74.731 313.302 74.799 314.781H70.311ZM79.8341 320V315.41C79.8341 313.727 80.8541 312.554 82.2651 312.554H82.4011C83.6591 312.554 84.2201 313.336 84.2201 314.696V320H85.6651V314.356C85.6651 312.486 84.5091 311.33 82.6391 311.33C81.2621 311.33 80.3271 311.942 79.8341 312.775V311.5H78.3891V320H79.8341ZM91.6176 320.17C93.3686 320.17 94.7966 319.218 95.1196 317.518H93.6746C93.4536 318.487 92.6716 318.946 91.7366 318.946H91.6006C90.4446 318.946 89.2036 318.045 89.1356 315.954H95.1366V315.104C95.1366 312.894 93.7596 311.33 91.5836 311.33C89.5946 311.33 87.6906 312.775 87.6906 315.733C87.6906 318.691 89.5096 320.17 91.6176 320.17ZM89.2036 314.781C89.4926 313.098 90.5636 312.554 91.5156 312.554H91.6516C92.7566 312.554 93.6236 313.302 93.6916 314.781H89.2036ZM98.7267 320V315.75C98.7267 313.914 99.6787 312.792 101.243 312.792H101.923V311.415H101.158C100.036 311.415 98.9987 312.095 98.6417 313.387V311.5H97.2817V320H98.7267ZM105.652 320.17C107.046 320.17 108.117 319.405 108.457 318.64C108.457 318.844 108.474 319.592 108.542 320H109.902C109.817 319.405 109.817 318.64 109.817 318.13V314.56C109.817 312.826 108.678 311.33 106.434 311.33C104.547 311.33 103.153 312.384 103.051 313.931H104.496C104.598 313.013 105.414 312.554 106.366 312.554H106.485C107.658 312.554 108.372 313.285 108.372 314.56V314.849L105.924 315.053C104.564 315.155 102.881 315.733 102.881 317.654C102.881 319.099 104.071 320.17 105.652 320.17ZM105.805 318.946C104.955 318.946 104.326 318.368 104.326 317.586C104.326 316.753 105.074 316.243 106.145 316.158L108.372 315.988V316.94C108.372 318.045 107.046 318.946 105.958 318.946H105.805ZM116.881 320V318.725H115.232C114.722 318.725 114.552 318.555 114.552 318.045V312.741H116.626V311.5H114.552V308.746H113.107V311.5H111.203V312.741H113.107V318.249C113.107 319.405 113.736 320 114.892 320H116.881ZM121.932 320.17C123.683 320.17 125.111 319.218 125.434 317.518H123.989C123.768 318.487 122.986 318.946 122.051 318.946H121.915C120.759 318.946 119.518 318.045 119.45 315.954H125.451V315.104C125.451 312.894 124.074 311.33 121.898 311.33C119.909 311.33 118.005 312.775 118.005 315.733C118.005 318.691 119.824 320.17 121.932 320.17ZM119.518 314.781C119.807 313.098 120.878 312.554 121.83 312.554H121.966C123.071 312.554 123.938 313.302 124.006 314.781H119.518ZM134.041 320.17C135.435 320.17 136.506 319.405 136.846 318.64C136.846 318.844 136.863 319.592 136.931 320H138.291C138.206 319.405 138.206 318.64 138.206 318.13V314.56C138.206 312.826 137.067 311.33 134.823 311.33C132.936 311.33 131.542 312.384 131.44 313.931H132.885C132.987 313.013 133.803 312.554 134.755 312.554H134.874C136.047 312.554 136.761 313.285 136.761 314.56V314.849L134.313 315.053C132.953 315.155 131.27 315.733 131.27 317.654C131.27 319.099 132.46 320.17 134.041 320.17ZM134.194 318.946C133.344 318.946 132.715 318.368 132.715 317.586C132.715 316.753 133.463 316.243 134.534 316.158L136.761 315.988V316.94C136.761 318.045 135.435 318.946 134.347 318.946H134.194ZM147.716 320.17C149.654 320.17 150.997 319.184 150.997 317.62C150.997 316.124 149.96 315.478 148.702 315.223L147.359 314.934C146.441 314.747 146.05 314.407 146.05 313.761C146.05 313.115 146.679 312.554 147.699 312.554H147.852C148.974 312.554 149.535 313.285 149.637 314.101H151.082C151.048 312.571 149.96 311.33 147.767 311.33C146.101 311.33 144.605 312.231 144.605 313.914C144.605 315.359 145.693 316.022 147.036 316.294L148.277 316.549C149.229 316.736 149.552 317.127 149.552 317.705C149.552 318.47 148.838 318.946 147.852 318.946H147.699C146.645 318.946 145.812 318.47 145.71 317.399H144.265C144.299 318.997 145.489 320.17 147.716 320.17ZM154.693 309.97V308.236H153.078V309.97H154.693ZM154.608 320V311.5H153.163V320H154.608ZM160.443 323.74C163.027 323.74 164.54 322.125 164.54 319.983V311.5H163.095V312.741C162.687 311.976 161.752 311.33 160.443 311.33C158.403 311.33 156.703 312.809 156.703 315.699C156.703 318.589 158.437 320 160.443 320C161.752 320 162.636 319.354 163.095 318.589V319.83C163.095 321.734 161.973 322.516 160.528 322.516H160.358C159.117 322.516 158.165 322.057 157.978 321.139H156.533C156.703 322.652 158.046 323.74 160.443 323.74ZM160.511 318.776C159.185 318.776 158.148 317.824 158.148 315.699C158.148 313.574 159.253 312.554 160.562 312.554H160.715C162.007 312.554 163.095 313.744 163.095 315.699C163.095 317.654 161.939 318.776 160.647 318.776H160.511ZM168.586 320V315.41C168.586 313.727 169.606 312.554 171.017 312.554H171.153C172.411 312.554 172.972 313.336 172.972 314.696V320H174.417V314.356C174.417 312.486 173.261 311.33 171.391 311.33C170.014 311.33 169.079 311.942 168.586 312.775V311.5H167.141V320H168.586ZM180.37 320.17C182.121 320.17 183.549 319.218 183.872 317.518H182.427C182.206 318.487 181.424 318.946 180.489 318.946H180.353C179.197 318.946 177.956 318.045 177.888 315.954H183.889V315.104C183.889 312.894 182.512 311.33 180.336 311.33C178.347 311.33 176.443 312.775 176.443 315.733C176.443 318.691 178.262 320.17 180.37 320.17ZM177.956 314.781C178.245 313.098 179.316 312.554 180.268 312.554H180.404C181.509 312.554 182.376 313.302 182.444 314.781H177.956ZM189.23 320.17C190.386 320.17 191.593 319.575 192.052 318.759V320H193.497V308.1H192.052V312.741C191.593 311.925 190.505 311.33 189.349 311.33C187.19 311.33 185.524 312.979 185.524 315.75C185.524 318.521 187.071 320.17 189.23 320.17ZM189.417 318.946C187.955 318.946 186.986 317.722 186.986 315.75C186.986 313.778 187.955 312.554 189.417 312.554H189.536C190.964 312.554 192.052 313.778 192.052 315.75C192.052 317.722 190.964 318.946 189.536 318.946H189.417ZM41.57 343.17C42.964 343.17 44.035 342.405 44.375 341.64C44.375 341.844 44.392 342.592 44.46 343H45.82C45.735 342.405 45.735 341.64 45.735 341.13V337.56C45.735 335.826 44.596 334.33 42.352 334.33C40.465 334.33 39.071 335.384 38.969 336.931H40.414C40.516 336.013 41.332 335.554 42.284 335.554H42.403C43.576 335.554 44.29 336.285 44.29 337.56V337.849L41.842 338.053C40.482 338.155 38.799 338.733 38.799 340.654C38.799 342.099 39.989 343.17 41.57 343.17ZM41.723 341.946C40.873 341.946 40.244 341.368 40.244 340.586C40.244 339.753 40.992 339.243 42.063 339.158L44.29 338.988V339.94C44.29 341.045 42.964 341.946 41.876 341.946H41.723ZM49.7188 346.4V341.759C50.1608 342.575 51.2488 343.17 52.4218 343.17C54.5638 343.17 56.2298 341.521 56.2298 338.75C56.2298 335.979 54.6828 334.33 52.5238 334.33C51.3678 334.33 50.1608 334.925 49.7188 335.741V334.5H48.2738V346.4H49.7188ZM52.2178 341.946C50.8068 341.946 49.7188 340.722 49.7188 338.75C49.7188 336.778 50.8068 335.554 52.2178 335.554H52.3368C53.7988 335.554 54.7848 336.778 54.7848 338.75C54.7848 340.722 53.7988 341.946 52.3368 341.946H52.2178ZM59.7794 346.4V341.759C60.2214 342.575 61.3094 343.17 62.4824 343.17C64.6244 343.17 66.2904 341.521 66.2904 338.75C66.2904 335.979 64.7434 334.33 62.5844 334.33C61.4284 334.33 60.2214 334.925 59.7794 335.741V334.5H58.3344V346.4H59.7794ZM62.2784 341.946C60.8674 341.946 59.7794 340.722 59.7794 338.75C59.7794 336.778 60.8674 335.554 62.2784 335.554H62.3974C63.8594 335.554 64.8454 336.778 64.8454 338.75C64.8454 340.722 63.8594 341.946 62.3974 341.946H62.2784ZM76.9207 343V341.725H75.2717C74.7617 341.725 74.5917 341.555 74.5917 341.045V335.741H76.6657V334.5H74.5917V331.746H73.1467V334.5H71.2427V335.741H73.1467V341.249C73.1467 342.405 73.7757 343 74.9317 343H76.9207ZM82.0401 343.17C84.3011 343.17 86.0691 341.385 86.0691 338.75C86.0691 336.115 84.3011 334.33 82.0401 334.33C79.7791 334.33 78.0281 336.115 78.0281 338.75C78.0281 341.385 79.7791 343.17 82.0401 343.17ZM81.9721 341.946C80.5441 341.946 79.4731 340.773 79.4731 338.75C79.4731 336.727 80.5441 335.554 81.9721 335.554H82.1251C83.5531 335.554 84.6241 336.727 84.6241 338.75C84.6241 340.773 83.5531 341.946 82.1251 341.946H81.9721ZM89.6124 343V340.178L90.9554 338.869L93.9134 343H95.6984L91.9924 337.883L95.5284 334.5H93.6074L89.6124 338.41V331.1H88.1674V343H89.6124ZM100.151 343.17C101.902 343.17 103.33 342.218 103.653 340.518H102.208C101.987 341.487 101.205 341.946 100.27 341.946H100.134C98.9778 341.946 97.7368 341.045 97.6688 338.954H103.67V338.104C103.67 335.894 102.293 334.33 100.117 334.33C98.1278 334.33 96.2238 335.775 96.2238 338.733C96.2238 341.691 98.0428 343.17 100.151 343.17ZM97.7368 337.781C98.0258 336.098 99.0968 335.554 100.049 335.554H100.185C101.29 335.554 102.157 336.302 102.225 337.781H97.7368ZM107.26 343V338.41C107.26 336.727 108.28 335.554 109.691 335.554H109.827C111.085 335.554 111.646 336.336 111.646 337.696V343H113.091V337.356C113.091 335.486 111.935 334.33 110.065 334.33C108.688 334.33 107.753 334.942 107.26 335.775V334.5H105.815V343H107.26ZM120.451 343C122.389 343 123.341 342.031 123.341 339.974V331.1H121.811V339.889C121.811 341.028 121.369 341.555 120.281 341.555H118.479V343H120.451ZM136.301 341.47L133.836 331.1H131.762L129.263 341.436L126.832 331.1H125.251L128.158 343H130.283L132.748 332.817L135.213 343H137.338L140.245 331.1H138.664L136.301 341.47ZM146.733 343V332.494H151.017V331.1H140.919V332.494H145.203V343H146.733Z" fill="black"/>
<path d="M280.68 243V241.688H273.912V237.896H279.56V236.584H273.912V233.112H280.52V231.8H272.472V243H280.68ZM283.215 243L285.455 239.992L287.663 243H289.247L286.255 238.92L289.167 235H287.615L285.487 237.88L283.359 235H281.775L284.687 238.952L281.679 243H283.215ZM293.669 243.16C295.461 243.16 296.693 242.088 296.901 240.392H295.541C295.381 241.32 294.709 242.008 293.749 242.008H293.605C292.005 242.008 291.253 240.6 291.253 239C291.253 237.4 292.005 235.992 293.605 235.992H293.749C294.709 235.992 295.381 236.664 295.541 237.608H296.901C296.741 235.896 295.461 234.84 293.669 234.84C291.237 234.84 289.893 236.648 289.893 239C289.893 241.352 291.237 243.16 293.669 243.16ZM300.186 243V238.568C300.186 236.936 301.29 235.992 302.458 235.992H302.602C303.786 235.992 304.314 236.728 304.314 237.992V243H305.674V237.672C305.674 235.992 304.666 234.84 302.842 234.84C301.546 234.84 300.682 235.4 300.186 236.2V231.8H298.826V243H300.186ZM310.188 243.16C311.5 243.16 312.508 242.44 312.828 241.72C312.828 241.912 312.844 242.616 312.908 243H314.188C314.108 242.44 314.108 241.72 314.108 241.24V237.88C314.108 236.248 313.036 234.84 310.924 234.84C309.148 234.84 307.836 235.832 307.74 237.288H309.1C309.196 236.424 309.964 235.992 310.86 235.992H310.972C312.076 235.992 312.748 236.68 312.748 237.88V238.152L310.444 238.344C309.164 238.44 307.58 238.984 307.58 240.792C307.58 242.152 308.7 243.16 310.188 243.16ZM310.332 242.008C309.532 242.008 308.94 241.464 308.94 240.728C308.94 239.944 309.644 239.464 310.652 239.384L312.748 239.224V240.12C312.748 241.16 311.5 242.008 310.476 242.008H310.332ZM317.858 243V238.68C317.858 237.096 318.818 235.992 320.146 235.992H320.274C321.458 235.992 321.986 236.728 321.986 238.008V243H323.346V237.688C323.346 235.928 322.258 234.84 320.498 234.84C319.202 234.84 318.322 235.416 317.858 236.2V235H316.498V243H317.858ZM328.772 246.52C331.204 246.52 332.628 245 332.628 242.984V235H331.268V236.168C330.884 235.448 330.004 234.84 328.772 234.84C326.852 234.84 325.252 236.232 325.252 238.952C325.252 241.672 326.884 243 328.772 243C330.004 243 330.836 242.392 331.268 241.672V242.84C331.268 244.632 330.212 245.368 328.852 245.368H328.692C327.524 245.368 326.628 244.936 326.452 244.072H325.092C325.252 245.496 326.516 246.52 328.772 246.52ZM328.836 241.848C327.588 241.848 326.612 240.952 326.612 238.952C326.612 236.952 327.652 235.992 328.884 235.992H329.028C330.244 235.992 331.268 237.112 331.268 238.952C331.268 240.792 330.18 241.848 328.964 241.848H328.836ZM338.292 243.16C339.94 243.16 341.284 242.264 341.588 240.664H340.228C340.02 241.576 339.284 242.008 338.404 242.008H338.276C337.188 242.008 336.02 241.16 335.956 239.192H341.604V238.392C341.604 236.312 340.308 234.84 338.26 234.84C336.388 234.84 334.596 236.2 334.596 238.984C334.596 241.768 336.308 243.16 338.292 243.16ZM336.02 238.088C336.292 236.504 337.3 235.992 338.196 235.992H338.324C339.364 235.992 340.18 236.696 340.244 238.088H336.02ZM350.184 243.16C352.008 243.16 353.272 242.232 353.272 240.76C353.272 239.352 352.296 238.744 351.112 238.504L349.848 238.232C348.984 238.056 348.616 237.736 348.616 237.128C348.616 236.52 349.208 235.992 350.168 235.992H350.312C351.368 235.992 351.896 236.68 351.992 237.448H353.352C353.32 236.008 352.296 234.84 350.232 234.84C348.664 234.84 347.256 235.688 347.256 237.272C347.256 238.632 348.28 239.256 349.544 239.512L350.712 239.752C351.608 239.928 351.912 240.296 351.912 240.84C351.912 241.56 351.24 242.008 350.312 242.008H350.168C349.176 242.008 348.392 241.56 348.296 240.552H346.936C346.968 242.056 348.088 243.16 350.184 243.16ZM356.75 233.56V231.928H355.23V233.56H356.75ZM356.67 243V235H355.31V243H356.67ZM362.163 246.52C364.595 246.52 366.019 245 366.019 242.984V235H364.659V236.168C364.275 235.448 363.395 234.84 362.163 234.84C360.243 234.84 358.643 236.232 358.643 238.952C358.643 241.672 360.275 243 362.163 243C363.395 243 364.227 242.392 364.659 241.672V242.84C364.659 244.632 363.603 245.368 362.243 245.368H362.083C360.915 245.368 360.019 244.936 359.843 244.072H358.483C358.643 245.496 359.907 246.52 362.163 246.52ZM362.227 241.848C360.979 241.848 360.003 240.952 360.003 238.952C360.003 236.952 361.043 235.992 362.275 235.992H362.419C363.635 235.992 364.659 237.112 364.659 238.952C364.659 240.792 363.571 241.848 362.355 241.848H362.227ZM369.826 243V238.68C369.826 237.096 370.786 235.992 372.114 235.992H372.242C373.426 235.992 373.954 236.728 373.954 238.008V243H375.314V237.688C375.314 235.928 374.226 234.84 372.466 234.84C371.17 234.84 370.29 235.416 369.826 236.2V235H368.466V243H369.826ZM380.917 243.16C382.565 243.16 383.909 242.264 384.213 240.664H382.853C382.645 241.576 381.909 242.008 381.029 242.008H380.901C379.813 242.008 378.645 241.16 378.581 239.192H384.229V238.392C384.229 236.312 382.933 234.84 380.885 234.84C379.013 234.84 377.221 236.2 377.221 238.984C377.221 241.768 378.933 243.16 380.917 243.16ZM378.645 238.088C378.917 236.504 379.925 235.992 380.821 235.992H380.949C381.989 235.992 382.805 236.696 382.869 238.088H378.645ZM389.256 243.16C390.344 243.16 391.48 242.6 391.912 241.832V243H393.272V231.8H391.912V236.168C391.48 235.4 390.456 234.84 389.368 234.84C387.336 234.84 385.768 236.392 385.768 239C385.768 241.608 387.224 243.16 389.256 243.16ZM389.432 242.008C388.056 242.008 387.144 240.856 387.144 239C387.144 237.144 388.056 235.992 389.432 235.992H389.544C390.888 235.992 391.912 237.144 391.912 239C391.912 240.856 390.888 242.008 389.544 242.008H389.432ZM401.782 243.16C403.094 243.16 404.102 242.44 404.422 241.72C404.422 241.912 404.438 242.616 404.502 243H405.782C405.702 242.44 405.702 241.72 405.702 241.24V237.88C405.702 236.248 404.63 234.84 402.518 234.84C400.742 234.84 399.43 235.832 399.334 237.288H400.694C400.79 236.424 401.558 235.992 402.454 235.992H402.566C403.67 235.992 404.342 236.68 404.342 237.88V238.152L402.038 238.344C400.758 238.44 399.174 238.984 399.174 240.792C399.174 242.152 400.294 243.16 401.782 243.16ZM401.926 242.008C401.126 242.008 400.534 241.464 400.534 240.728C400.534 239.944 401.238 239.464 402.246 239.384L404.342 239.224V240.12C404.342 241.16 403.094 242.008 402.07 242.008H401.926ZM409.451 246.2V241.832C409.867 242.6 410.891 243.16 411.995 243.16C414.011 243.16 415.579 241.608 415.579 239C415.579 236.392 414.123 234.84 412.091 234.84C411.003 234.84 409.867 235.4 409.451 236.168V235H408.091V246.2H409.451ZM411.803 242.008C410.475 242.008 409.451 240.856 409.451 239C409.451 237.144 410.475 235.992 411.803 235.992H411.915C413.291 235.992 414.219 237.144 414.219 239C414.219 240.856 413.291 242.008 411.915 242.008H411.803ZM418.92 246.2V241.832C419.336 242.6 420.36 243.16 421.464 243.16C423.48 243.16 425.048 241.608 425.048 239C425.048 236.392 423.592 234.84 421.56 234.84C420.472 234.84 419.336 235.4 418.92 236.168V235H417.56V246.2H418.92ZM421.272 242.008C419.944 242.008 418.92 240.856 418.92 239C418.92 237.144 419.944 235.992 421.272 235.992H421.384C422.76 235.992 423.688 237.144 423.688 239C423.688 240.856 422.76 242.008 421.384 242.008H421.272ZM435.053 243V241.8H433.501C433.021 241.8 432.861 241.64 432.861 241.16V236.168H434.813V235H432.861V232.408H431.501V235H429.709V236.168H431.501V241.352C431.501 242.44 432.093 243 433.181 243H435.053ZM439.871 243.16C441.999 243.16 443.663 241.48 443.663 239C443.663 236.52 441.999 234.84 439.871 234.84C437.743 234.84 436.095 236.52 436.095 239C436.095 241.48 437.743 243.16 439.871 243.16ZM439.807 242.008C438.463 242.008 437.455 240.904 437.455 239C437.455 237.096 438.463 235.992 439.807 235.992H439.951C441.295 235.992 442.303 237.096 442.303 239C442.303 240.904 441.295 242.008 439.951 242.008H439.807ZM446.998 243V240.344L448.262 239.112L451.046 243H452.726L449.238 238.184L452.566 235H450.758L446.998 238.68V231.8H445.638V243H446.998ZM456.917 243.16C458.565 243.16 459.909 242.264 460.213 240.664H458.853C458.645 241.576 457.909 242.008 457.029 242.008H456.901C455.813 242.008 454.645 241.16 454.581 239.192H460.229V238.392C460.229 236.312 458.933 234.84 456.885 234.84C455.013 234.84 453.221 236.2 453.221 238.984C453.221 241.768 454.933 243.16 456.917 243.16ZM454.645 238.088C454.917 236.504 455.925 235.992 456.821 235.992H456.949C457.989 235.992 458.805 236.696 458.869 238.088H454.645ZM463.608 243V238.68C463.608 237.096 464.568 235.992 465.896 235.992H466.024C467.208 235.992 467.736 236.728 467.736 238.008V243H469.096V237.688C469.096 235.928 468.008 234.84 466.248 234.84C464.952 234.84 464.072 235.416 463.608 236.2V235H462.248V243H463.608ZM477.598 243V236.168H479.63V235H477.598V233.624C477.598 233.144 477.758 232.984 478.238 232.984H480.03V231.8H477.87C476.766 231.8 476.238 232.312 476.238 233.4V235H474.446V236.168H476.238V243H477.598ZM484.246 243.16C486.374 243.16 488.038 241.48 488.038 239C488.038 236.52 486.374 234.84 484.246 234.84C482.118 234.84 480.47 236.52 480.47 239C480.47 241.48 482.118 243.16 484.246 243.16ZM484.182 242.008C482.838 242.008 481.83 240.904 481.83 239C481.83 237.096 482.838 235.992 484.182 235.992H484.326C485.67 235.992 486.678 237.096 486.678 239C486.678 240.904 485.67 242.008 484.326 242.008H484.182ZM491.373 243V239C491.373 237.272 492.269 236.216 493.741 236.216H494.381V234.92H493.661C492.605 234.92 491.629 235.56 491.293 236.776V235H490.013V243H491.373ZM501.61 243.16C502.922 243.16 503.93 242.44 504.25 241.72C504.25 241.912 504.266 242.616 504.33 243H505.61C505.53 242.44 505.53 241.72 505.53 241.24V237.88C505.53 236.248 504.458 234.84 502.346 234.84C500.57 234.84 499.258 235.832 499.162 237.288H500.522C500.618 236.424 501.386 235.992 502.282 235.992H502.394C503.498 235.992 504.17 236.68 504.17 237.88V238.152L501.866 238.344C500.586 238.44 499.002 238.984 499.002 240.792C499.002 242.152 500.122 243.16 501.61 243.16ZM501.754 242.008C500.954 242.008 500.362 241.464 500.362 240.728C500.362 239.944 501.066 239.464 502.074 239.384L504.17 239.224V240.12C504.17 241.16 502.922 242.008 501.898 242.008H501.754ZM511.216 243.16C513.008 243.16 514.24 242.088 514.448 240.392H513.088C512.928 241.32 512.256 242.008 511.296 242.008H511.152C509.552 242.008 508.799 240.6 508.799 239C508.799 237.4 509.552 235.992 511.152 235.992H511.296C512.256 235.992 512.928 236.664 513.088 237.608H514.448C514.288 235.896 513.008 234.84 511.216 234.84C508.784 234.84 507.44 236.648 507.44 239C507.44 241.352 508.784 243.16 511.216 243.16ZM519.669 243.16C521.461 243.16 522.693 242.088 522.901 240.392H521.541C521.381 241.32 520.709 242.008 519.749 242.008H519.605C518.005 242.008 517.253 240.6 517.253 239C517.253 237.4 518.005 235.992 519.605 235.992H519.749C520.709 235.992 521.381 236.664 521.541 237.608H522.901C522.741 235.896 521.461 234.84 519.669 234.84C517.237 234.84 515.893 236.648 515.893 239C515.893 241.352 517.237 243.16 519.669 243.16ZM528.042 243.16C529.69 243.16 531.034 242.264 531.338 240.664H529.978C529.77 241.576 529.034 242.008 528.154 242.008H528.026C526.938 242.008 525.77 241.16 525.706 239.192H531.354V238.392C531.354 236.312 530.058 234.84 528.01 234.84C526.138 234.84 524.346 236.2 524.346 238.984C524.346 241.768 526.058 243.16 528.042 243.16ZM525.77 238.088C526.042 236.504 527.05 235.992 527.946 235.992H528.074C529.114 235.992 529.93 236.696 529.994 238.088H525.77ZM535.997 243.16C537.821 243.16 539.085 242.232 539.085 240.76C539.085 239.352 538.109 238.744 536.925 238.504L535.661 238.232C534.797 238.056 534.429 237.736 534.429 237.128C534.429 236.52 535.021 235.992 535.981 235.992H536.125C537.181 235.992 537.709 236.68 537.805 237.448H539.165C539.133 236.008 538.109 234.84 536.045 234.84C534.477 234.84 533.069 235.688 533.069 237.272C533.069 238.632 534.093 239.256 535.357 239.512L536.525 239.752C537.421 239.928 537.725 240.296 537.725 240.84C537.725 241.56 537.053 242.008 536.125 242.008H535.981C534.989 242.008 534.205 241.56 534.109 240.552H532.749C532.781 242.056 533.901 243.16 535.997 243.16ZM543.747 243.16C545.571 243.16 546.835 242.232 546.835 240.76C546.835 239.352 545.859 238.744 544.675 238.504L543.411 238.232C542.547 238.056 542.179 237.736 542.179 237.128C542.179 236.52 542.771 235.992 543.731 235.992H543.875C544.931 235.992 545.459 236.68 545.555 237.448H546.915C546.883 236.008 545.859 234.84 543.795 234.84C542.227 234.84 540.819 235.688 540.819 237.272C540.819 238.632 541.843 239.256 543.107 239.512L544.275 239.752C545.171 239.928 545.475 240.296 545.475 240.84C545.475 241.56 544.803 242.008 543.875 242.008H543.731C542.739 242.008 541.955 241.56 541.859 240.552H540.499C540.531 242.056 541.651 243.16 543.747 243.16ZM556.897 243V241.8H555.345C554.865 241.8 554.705 241.64 554.705 241.16V236.168H556.657V235H554.705V232.408H553.345V235H551.553V236.168H553.345V241.352C553.345 242.44 553.937 243 555.025 243H556.897ZM561.715 243.16C563.843 243.16 565.507 241.48 565.507 239C565.507 236.52 563.843 234.84 561.715 234.84C559.587 234.84 557.939 236.52 557.939 239C557.939 241.48 559.587 243.16 561.715 243.16ZM561.651 242.008C560.307 242.008 559.299 240.904 559.299 239C559.299 237.096 560.307 235.992 561.651 235.992H561.795C563.139 235.992 564.147 237.096 564.147 239C564.147 240.904 563.139 242.008 561.795 242.008H561.651ZM568.842 243V240.344L570.106 239.112L572.89 243H574.57L571.082 238.184L574.41 235H572.602L568.842 238.68V231.8H567.482V243H568.842ZM578.761 243.16C580.409 243.16 581.753 242.264 582.057 240.664H580.697C580.489 241.576 579.753 242.008 578.873 242.008H578.745C577.657 242.008 576.489 241.16 576.424 239.192H582.073V238.392C582.073 236.312 580.777 234.84 578.729 234.84C576.857 234.84 575.065 236.2 575.065 238.984C575.065 241.768 576.777 243.16 578.761 243.16ZM576.489 238.088C576.761 236.504 577.769 235.992 578.665 235.992H578.793C579.833 235.992 580.649 236.696 580.713 238.088H576.489ZM585.451 243V238.68C585.451 237.096 586.411 235.992 587.739 235.992H587.867C589.051 235.992 589.579 236.728 589.579 238.008V243H590.939V237.688C590.939 235.928 589.851 234.84 588.091 234.84C586.795 234.84 585.915 235.416 585.451 236.2V235H584.091V243H585.451Z" fill="black"/>
<path d="M668.032 243.16C670.448 243.16 672.304 241.72 672.448 239.512H671.008C670.848 240.856 669.792 241.848 668.112 241.848H667.952C665.552 241.848 664.24 239.864 664.24 237.4C664.24 234.936 665.552 232.952 667.952 232.952H668.112C669.792 232.952 670.848 233.944 671.008 235.288H672.448C672.304 233.08 670.448 231.64 668.032 231.64C664.784 231.64 662.8 234.12 662.8 237.4C662.8 240.68 664.784 243.16 668.032 243.16ZM676.563 243.16C677.875 243.16 678.883 242.44 679.203 241.72C679.203 241.912 679.219 242.616 679.283 243H680.563C680.483 242.44 680.483 241.72 680.483 241.24V237.88C680.483 236.248 679.411 234.84 677.299 234.84C675.523 234.84 674.211 235.832 674.115 237.288H675.475C675.571 236.424 676.339 235.992 677.235 235.992H677.347C678.451 235.992 679.123 236.68 679.123 237.88V238.152L676.819 238.344C675.539 238.44 673.955 238.984 673.955 240.792C673.955 242.152 675.075 243.16 676.563 243.16ZM676.707 242.008C675.907 242.008 675.315 241.464 675.315 240.728C675.315 239.944 676.019 239.464 677.027 239.384L679.123 239.224V240.12C679.123 241.16 677.875 242.008 676.851 242.008H676.707ZM684.233 243V231.8H682.873V243H684.233ZM688.045 243V231.8H686.685V243H688.045ZM699.235 243.16C701.651 243.16 703.507 241.72 703.651 239.512H702.211C702.051 240.856 700.995 241.848 699.315 241.848H699.155C696.755 241.848 695.443 239.864 695.443 237.4C695.443 234.936 696.755 232.952 699.155 232.952H699.315C700.995 232.952 702.051 233.944 702.211 235.288H703.651C703.507 233.08 701.651 231.64 699.235 231.64C695.987 231.64 694.003 234.12 694.003 237.4C694.003 240.68 695.987 243.16 699.235 243.16ZM708.918 243.16C711.046 243.16 712.71 241.48 712.71 239C712.71 236.52 711.046 234.84 708.918 234.84C706.79 234.84 705.142 236.52 705.142 239C705.142 241.48 706.79 243.16 708.918 243.16ZM708.854 242.008C707.51 242.008 706.502 240.904 706.502 239C706.502 237.096 707.51 235.992 708.854 235.992H708.998C710.342 235.992 711.35 237.096 711.35 239C711.35 240.904 710.342 242.008 708.998 242.008H708.854ZM716.045 243V239C716.045 237.272 716.941 236.216 718.413 236.216H719.053V234.92H718.333C717.277 234.92 716.301 235.56 715.965 236.776V235H714.685V243H716.045ZM723.349 243.16C724.437 243.16 725.573 242.6 726.005 241.832V243H727.365V231.8H726.005V236.168C725.573 235.4 724.549 234.84 723.461 234.84C721.429 234.84 719.861 236.392 719.861 239C719.861 241.608 721.317 243.16 723.349 243.16ZM723.525 242.008C722.149 242.008 721.237 240.856 721.237 239C721.237 237.144 722.149 235.992 723.525 235.992H723.637C724.981 235.992 726.005 237.144 726.005 239C726.005 240.856 724.981 242.008 723.637 242.008H723.525ZM743.021 243L738.557 231.8H736.733L732.237 243H733.709L734.877 240.056H740.349L741.517 243H743.021ZM737.613 233.128L739.837 238.744H735.389L737.613 233.128ZM746.068 243V238.52H749.268C751.3 238.52 752.852 237.32 752.852 235.16C752.852 233 751.3 231.8 749.268 231.8H744.628V243H746.068ZM746.068 233.112H749.028C750.516 233.112 751.412 233.8 751.412 235.16C751.412 236.52 750.516 237.208 749.028 237.208H746.068V233.112ZM756.318 243V231.8H754.878V243H756.318ZM761.669 243.16C763.493 243.16 764.757 242.232 764.757 240.76C764.757 239.352 763.781 238.744 762.597 238.504L761.333 238.232C760.469 238.056 760.101 237.736 760.101 237.128C760.101 236.52 760.693 235.992 761.653 235.992H761.797C762.853 235.992 763.381 236.68 763.477 237.448H764.837C764.805 236.008 763.781 234.84 761.717 234.84C760.149 234.84 758.741 235.688 758.741 237.272C758.741 238.632 759.765 239.256 761.029 239.512L762.197 239.752C763.093 239.928 763.397 240.296 763.397 240.84C763.397 241.56 762.725 242.008 761.797 242.008H761.653C760.661 242.008 759.877 241.56 759.781 240.552H758.421C758.453 242.056 759.573 243.16 761.669 243.16ZM774.819 243V241.8H773.267C772.787 241.8 772.627 241.64 772.627 241.16V236.168H774.579V235H772.627V232.408H771.267V235H769.475V236.168H771.267V241.352C771.267 242.44 771.859 243 772.947 243H774.819ZM779.637 243.16C781.765 243.16 783.429 241.48 783.429 239C783.429 236.52 781.765 234.84 779.637 234.84C777.509 234.84 775.861 236.52 775.861 239C775.861 241.48 777.509 243.16 779.637 243.16ZM779.573 242.008C778.229 242.008 777.221 240.904 777.221 239C777.221 237.096 778.229 235.992 779.573 235.992H779.717C781.061 235.992 782.069 237.096 782.069 239C782.069 240.904 781.061 242.008 779.717 242.008H779.573ZM791.965 243.16C793.789 243.16 795.053 242.232 795.053 240.76C795.053 239.352 794.077 238.744 792.893 238.504L791.629 238.232C790.765 238.056 790.397 237.736 790.397 237.128C790.397 236.52 790.989 235.992 791.949 235.992H792.093C793.149 235.992 793.677 236.68 793.773 237.448H795.133C795.101 236.008 794.077 234.84 792.013 234.84C790.445 234.84 789.037 235.688 789.037 237.272C789.037 238.632 790.061 239.256 791.325 239.512L792.493 239.752C793.389 239.928 793.693 240.296 793.693 240.84C793.693 241.56 793.021 242.008 792.093 242.008H791.949C790.957 242.008 790.173 241.56 790.077 240.552H788.717C788.749 242.056 789.869 243.16 791.965 243.16ZM802.599 235L800.071 241.08L797.495 235H796.039L799.415 242.84V244.008C799.415 244.488 799.255 244.648 798.775 244.648H796.519V245.848H799.095C800.183 245.848 800.711 245.336 800.711 244.264V242.792L804.007 235H802.599ZM806.795 243V238.68C806.795 237.096 807.755 235.992 809.083 235.992H809.211C810.395 235.992 810.923 236.728 810.923 238.008V243H812.283V237.688C812.283 235.928 811.195 234.84 809.435 234.84C808.139 234.84 807.259 235.416 806.795 236.2V235H805.435V243H806.795ZM817.966 243.16C819.758 243.16 820.99 242.088 821.198 240.392H819.838C819.678 241.32 819.006 242.008 818.046 242.008H817.902C816.302 242.008 815.549 240.6 815.549 239C815.549 237.4 816.302 235.992 817.902 235.992H818.046C819.006 235.992 819.678 236.664 819.838 237.608H821.198C821.038 235.896 819.758 234.84 817.966 234.84C815.534 234.84 814.19 236.648 814.19 239C814.19 241.352 815.534 243.16 817.966 243.16ZM824.483 243V238.568C824.483 236.936 825.587 235.992 826.755 235.992H826.899C828.083 235.992 828.611 236.728 828.611 237.992V243H829.971V237.672C829.971 235.992 828.963 234.84 827.139 234.84C825.843 234.84 824.979 235.4 824.483 236.2V231.8H823.123V243H824.483ZM833.717 243V239C833.717 237.272 834.613 236.216 836.085 236.216H836.725V234.92H836.005C834.949 234.92 833.973 235.56 833.637 236.776V235H832.357V243H833.717ZM841.262 243.16C843.39 243.16 845.054 241.48 845.054 239C845.054 236.52 843.39 234.84 841.262 234.84C839.134 234.84 837.486 236.52 837.486 239C837.486 241.48 839.134 243.16 841.262 243.16ZM841.198 242.008C839.854 242.008 838.846 240.904 838.846 239C838.846 237.096 839.854 235.992 841.198 235.992H841.342C842.686 235.992 843.694 237.096 843.694 239C843.694 240.904 842.686 242.008 841.342 242.008H841.198ZM848.389 243V238.68C848.389 237.096 849.349 235.992 850.677 235.992H850.805C851.989 235.992 852.517 236.728 852.517 238.008V243H853.877V237.688C853.877 235.928 852.789 234.84 851.029 234.84C849.733 234.84 848.853 235.416 848.389 236.2V235H847.029V243H848.389ZM857.703 233.56V231.928H856.183V233.56H857.703ZM857.623 243V235H856.263V243H857.623ZM862.7 243.16C864.524 243.16 865.788 242.232 865.788 240.76C865.788 239.352 864.812 238.744 863.628 238.504L862.364 238.232C861.5 238.056 861.132 237.736 861.132 237.128C861.132 236.52 861.724 235.992 862.684 235.992H862.828C863.884 235.992 864.412 236.68 864.508 237.448H865.868C865.836 236.008 864.812 234.84 862.748 234.84C861.18 234.84 859.772 235.688 859.772 237.272C859.772 238.632 860.796 239.256 862.06 239.512L863.228 239.752C864.124 239.928 864.428 240.296 864.428 240.84C864.428 241.56 863.756 242.008 862.828 242.008H862.684C861.692 242.008 860.908 241.56 860.812 240.552H859.452C859.484 242.056 860.604 243.16 862.7 243.16ZM871.042 243.16C872.69 243.16 874.034 242.264 874.338 240.664H872.978C872.77 241.576 872.034 242.008 871.154 242.008H871.026C869.938 242.008 868.77 241.16 868.706 239.192H874.354V238.392C874.354 236.312 873.058 234.84 871.01 234.84C869.138 234.84 867.346 236.2 867.346 238.984C867.346 241.768 869.058 243.16 871.042 243.16ZM868.77 238.088C869.042 236.504 870.05 235.992 870.946 235.992H871.074C872.114 235.992 872.93 236.696 872.994 238.088H868.77ZM881.75 233.56V231.928H880.23V233.56H881.75ZM881.67 243V235H880.31V243H881.67ZM887.131 243.16C888.219 243.16 889.355 242.6 889.787 241.832V243H891.147V231.8H889.787V236.168C889.355 235.4 888.331 234.84 887.243 234.84C885.211 234.84 883.643 236.392 883.643 239C883.643 241.608 885.099 243.16 887.131 243.16ZM887.307 242.008C885.931 242.008 885.019 240.856 885.019 239C885.019 237.144 885.931 235.992 887.307 235.992H887.419C888.763 235.992 889.787 237.144 889.787 239C889.787 240.856 888.763 242.008 887.419 242.008H887.307ZM896.807 243.16C898.455 243.16 899.799 242.264 900.103 240.664H898.743C898.535 241.576 897.799 242.008 896.919 242.008H896.791C895.703 242.008 894.535 241.16 894.471 239.192H900.119V238.392C900.119 236.312 898.823 234.84 896.775 234.84C894.903 234.84 893.111 236.2 893.111 238.984C893.111 241.768 894.823 243.16 896.807 243.16ZM894.535 238.088C894.807 236.504 895.815 235.992 896.711 235.992H896.839C897.879 235.992 898.695 236.696 898.759 238.088H894.535ZM903.498 243V238.68C903.498 237.096 904.458 235.992 905.786 235.992H905.914C907.098 235.992 907.626 236.728 907.626 238.008V243H908.986V237.688C908.986 235.928 907.898 234.84 906.138 234.84C904.842 234.84 903.962 235.416 903.498 236.2V235H902.138V243H903.498ZM915.663 243V241.8H914.111C913.631 241.8 913.471 241.64 913.471 241.16V236.168H915.423V235H913.471V232.408H912.111V235H910.319V236.168H912.111V241.352C912.111 242.44 912.703 243 913.791 243H915.663ZM918.735 233.56V231.928H917.215V233.56H918.735ZM918.655 243V235H917.295V243H918.655ZM925.475 243V241.8H923.923C923.443 241.8 923.283 241.64 923.283 241.16V236.168H925.235V235H923.283V232.408H921.923V235H920.131V236.168H921.923V241.352C921.923 242.44 922.515 243 923.603 243H925.475ZM928.547 233.56V231.928H927.027V233.56H928.547ZM928.467 243V235H927.107V243H928.467ZM934.136 243.16C935.784 243.16 937.128 242.264 937.432 240.664H936.072C935.864 241.576 935.128 242.008 934.248 242.008H934.12C933.032 242.008 931.864 241.16 931.799 239.192H937.448V238.392C937.448 236.312 936.152 234.84 934.104 234.84C932.232 234.84 930.44 236.2 930.44 238.984C930.44 241.768 932.152 243.16 934.136 243.16ZM931.864 238.088C932.136 236.504 933.144 235.992 934.04 235.992H934.168C935.208 235.992 936.024 236.696 936.088 238.088H931.864ZM942.09 243.16C943.914 243.16 945.178 242.232 945.178 240.76C945.178 239.352 944.202 238.744 943.018 238.504L941.754 238.232C940.89 238.056 940.522 237.736 940.522 237.128C940.522 236.52 941.114 235.992 942.074 235.992H942.218C943.274 235.992 943.802 236.68 943.898 237.448H945.258C945.226 236.008 944.202 234.84 942.138 234.84C940.57 234.84 939.162 235.688 939.162 237.272C939.162 238.632 940.186 239.256 941.45 239.512L942.618 239.752C943.514 239.928 943.818 240.296 943.818 240.84C943.818 241.56 943.146 242.008 942.218 242.008H942.074C941.082 242.008 940.298 241.56 940.202 240.552H938.842C938.874 242.056 939.994 243.16 942.09 243.16ZM954.434 243.16C956.562 243.16 958.226 241.48 958.226 239C958.226 236.52 956.562 234.84 954.434 234.84C952.306 234.84 950.658 236.52 950.658 239C950.658 241.48 952.306 243.16 954.434 243.16ZM954.37 242.008C953.026 242.008 952.018 240.904 952.018 239C952.018 237.096 953.026 235.992 954.37 235.992H954.514C955.858 235.992 956.866 237.096 956.866 239C956.866 240.904 955.858 242.008 954.514 242.008H954.37ZM962.285 243V236.168H964.317V235H962.285V233.624C962.285 233.144 962.445 232.984 962.925 232.984H964.717V231.8H962.557C961.453 231.8 960.925 232.312 960.925 233.4V235H959.133V236.168H960.925V243H962.285ZM665.888 264.16C667.248 264.16 668.144 263.424 668.48 262.48V264H669.84V256H668.48V260.32C668.48 262 667.44 263.008 666.368 263.008H666.224C665.072 263.008 664.512 262.32 664.512 260.96V256H663.152V261.28C663.152 262.96 664.096 264.16 665.888 264.16ZM674.934 264.16C676.758 264.16 678.022 263.232 678.022 261.76C678.022 260.352 677.046 259.744 675.862 259.504L674.598 259.232C673.734 259.056 673.366 258.736 673.366 258.128C673.366 257.52 673.958 256.992 674.918 256.992H675.062C676.118 256.992 676.646 257.68 676.742 258.448H678.102C678.07 257.008 677.046 255.84 674.982 255.84C673.414 255.84 672.006 256.688 672.006 258.272C672.006 259.632 673.03 260.256 674.294 260.512L675.462 260.752C676.358 260.928 676.662 261.296 676.662 261.84C676.662 262.56 675.99 263.008 675.062 263.008H674.918C673.926 263.008 673.142 262.56 673.046 261.552H671.686C671.718 263.056 672.838 264.16 674.934 264.16ZM683.276 264.16C684.924 264.16 686.268 263.264 686.572 261.664H685.212C685.004 262.576 684.268 263.008 683.388 263.008H683.26C682.172 263.008 681.004 262.16 680.94 260.192H686.588V259.392C686.588 257.312 685.292 255.84 683.244 255.84C681.372 255.84 679.58 257.2 679.58 259.984C679.58 262.768 681.292 264.16 683.276 264.16ZM681.004 259.088C681.276 257.504 682.284 256.992 683.18 256.992H683.308C684.348 256.992 685.164 257.696 685.228 259.088H681.004ZM689.967 264V260C689.967 258.272 690.863 257.216 692.335 257.216H692.975V255.92H692.255C691.199 255.92 690.223 256.56 689.887 257.776V256H688.607V264H689.967ZM697.044 264.16C698.868 264.16 700.132 263.232 700.132 261.76C700.132 260.352 699.156 259.744 697.972 259.504L696.708 259.232C695.844 259.056 695.476 258.736 695.476 258.128C695.476 257.52 696.068 256.992 697.028 256.992H697.172C698.228 256.992 698.756 257.68 698.852 258.448H700.212C700.18 257.008 699.156 255.84 697.092 255.84C695.524 255.84 694.116 256.688 694.116 258.272C694.116 259.632 695.14 260.256 696.404 260.512L697.572 260.752C698.468 260.928 698.772 261.296 698.772 261.84C698.772 262.56 698.1 263.008 697.172 263.008H697.028C696.036 263.008 695.252 262.56 695.156 261.552H693.796C693.828 263.056 694.948 264.16 697.044 264.16ZM708.235 264.16C709.547 264.16 710.555 263.44 710.875 262.72C710.875 262.912 710.891 263.616 710.955 264H712.235C712.155 263.44 712.155 262.72 712.155 262.24V258.88C712.155 257.248 711.083 255.84 708.971 255.84C707.195 255.84 705.883 256.832 705.787 258.288H707.147C707.243 257.424 708.011 256.992 708.907 256.992H709.019C710.123 256.992 710.795 257.68 710.795 258.88V259.152L708.491 259.344C707.211 259.44 705.627 259.984 705.627 261.792C705.627 263.152 706.747 264.16 708.235 264.16ZM708.379 263.008C707.579 263.008 706.987 262.464 706.987 261.728C706.987 260.944 707.691 260.464 708.699 260.384L710.795 260.224V261.12C710.795 262.16 709.547 263.008 708.523 263.008H708.379ZM715.905 264V259.68C715.905 258.096 716.865 256.992 718.193 256.992H718.321C719.505 256.992 720.033 257.728 720.033 259.008V264H721.392V258.688C721.392 256.928 720.305 255.84 718.545 255.84C717.249 255.84 716.369 256.416 715.905 257.2V256H714.545V264H715.905ZM726.787 264.16C727.875 264.16 729.011 263.6 729.443 262.832V264H730.803V252.8H729.443V257.168C729.011 256.4 727.987 255.84 726.899 255.84C724.867 255.84 723.299 257.392 723.299 260C723.299 262.608 724.755 264.16 726.787 264.16ZM726.963 263.008C725.587 263.008 724.675 261.856 724.675 260C724.675 258.144 725.587 256.992 726.963 256.992H727.075C728.419 256.992 729.443 258.144 729.443 260C729.443 261.856 728.419 263.008 727.075 263.008H726.963ZM741.272 264V262.8H739.72C739.24 262.8 739.08 262.64 739.08 262.16V257.168H741.032V256H739.08V253.408H737.72V256H735.928V257.168H737.72V262.352C737.72 263.44 738.312 264 739.4 264H741.272ZM746.026 264.16C747.674 264.16 749.018 263.264 749.322 261.664H747.962C747.754 262.576 747.018 263.008 746.138 263.008H746.01C744.922 263.008 743.754 262.16 743.69 260.192H749.338V259.392C749.338 257.312 748.042 255.84 745.994 255.84C744.122 255.84 742.33 257.2 742.33 259.984C742.33 262.768 744.042 264.16 746.026 264.16ZM743.754 259.088C744.026 257.504 745.034 256.992 745.93 256.992H746.058C747.098 256.992 747.914 257.696 747.978 259.088H743.754ZM753.485 264.16C754.797 264.16 755.805 263.44 756.125 262.72C756.125 262.912 756.141 263.616 756.205 264H757.485C757.405 263.44 757.405 262.72 757.405 262.24V258.88C757.405 257.248 756.333 255.84 754.221 255.84C752.445 255.84 751.133 256.832 751.037 258.288H752.397C752.493 257.424 753.261 256.992 754.157 256.992H754.269C755.373 256.992 756.045 257.68 756.045 258.88V259.152L753.741 259.344C752.461 259.44 750.877 259.984 750.877 261.792C750.877 263.152 751.997 264.16 753.485 264.16ZM753.629 263.008C752.829 263.008 752.237 262.464 752.237 261.728C752.237 260.944 752.941 260.464 753.949 260.384L756.045 260.224V261.12C756.045 262.16 754.797 263.008 753.773 263.008H753.629ZM761.155 264V259.68C761.155 258.096 762.099 256.992 763.283 256.992H763.411C764.579 256.992 765.091 257.728 765.091 259.008V264H766.451V259.68C766.451 258.096 767.411 256.992 768.595 256.992H768.707C769.875 256.992 770.403 257.728 770.403 259.008V264H771.763V258.688C771.763 256.928 770.675 255.84 768.931 255.84C767.859 255.84 766.835 256.288 766.227 257.392C765.747 256.336 764.787 255.84 763.635 255.84C762.467 255.84 761.635 256.416 761.155 257.168V256H759.795V264H761.155ZM776.778 264.16C778.602 264.16 779.866 263.232 779.866 261.76C779.866 260.352 778.89 259.744 777.706 259.504L776.442 259.232C775.578 259.056 775.21 258.736 775.21 258.128C775.21 257.52 775.802 256.992 776.762 256.992H776.906C777.962 256.992 778.49 257.68 778.586 258.448H779.946C779.914 257.008 778.89 255.84 776.826 255.84C775.258 255.84 773.85 256.688 773.85 258.272C773.85 259.632 774.874 260.256 776.138 260.512L777.306 260.752C778.202 260.928 778.506 261.296 778.506 261.84C778.506 262.56 777.834 263.008 776.906 263.008H776.762C775.77 263.008 774.986 262.56 774.89 261.552H773.53C773.562 263.056 774.682 264.16 776.778 264.16Z" fill="black"/>
<path d="M267.05 316H268.55V311.8H271.025C273.02 311.8 274.4 310.675 274.4 308.65C274.4 306.625 273.02 305.5 271.025 305.5H267.05V316ZM268.55 310.45V306.85H270.8C272.15 306.85 272.9 307.45 272.9 308.65C272.9 309.925 272.15 310.45 270.8 310.45H268.55ZM279.494 305.35C276.944 305.35 275.594 307.375 275.594 310.75C275.594 314.125 276.944 316.15 279.494 316.15C282.044 316.15 283.394 314.125 283.394 310.75C283.394 307.375 282.044 305.35 279.494 305.35ZM279.419 314.8C277.919 314.8 277.094 313.3 277.094 310.75C277.094 308.2 277.919 306.7 279.419 306.7H279.569C281.069 306.7 281.894 308.2 281.894 310.75C281.894 313.3 281.069 314.8 279.569 314.8H279.419ZM290.738 308.65H292.238C292.163 306.625 290.963 305.35 288.638 305.35C286.538 305.35 285.188 306.475 285.188 308.275C285.188 309.925 285.998 310.795 287.513 311.2L288.638 311.5C290.153 311.905 290.588 312.325 290.588 313.3C290.588 314.2 289.988 314.8 288.713 314.8H288.563C286.988 314.8 286.163 314.05 286.163 312.625H284.663C284.738 314.875 286.013 316.15 288.563 316.15C291.038 316.15 292.088 314.95 292.088 313.225C292.088 311.575 291.203 310.675 289.538 310.225L287.888 309.775C287.048 309.55 286.688 309.1 286.688 308.275C286.688 307.375 287.288 306.7 288.563 306.7H288.713C289.988 306.7 290.663 307.45 290.738 308.65ZM296.732 316H298.232V306.85H301.532V305.5H293.432V306.85H296.732V316ZM312.246 316H313.671V311.95C313.671 310.45 314.646 309.55 315.621 309.55H315.771C316.746 309.55 317.346 310.225 317.346 311.35V316H318.771V311.2C318.771 309.55 317.946 308.35 316.221 308.35C314.871 308.35 313.971 309.1 313.671 309.925V305.5H312.246V316ZM324.72 316H327.72V314.755H325.17C324.72 314.755 324.57 314.605 324.57 314.155V309.73H327.195V308.5H324.57V306.07H323.145V308.5H321.045V309.73H323.145V314.425C323.145 315.475 323.67 316 324.72 316ZM333.714 316H336.714V314.755H334.164C333.714 314.755 333.564 314.605 333.564 314.155V309.73H336.189V308.5H333.564V306.07H332.139V308.5H330.039V309.73H332.139V314.425C332.139 315.475 332.664 316 333.714 316ZM342.618 309.55H342.693C343.818 309.55 344.628 310.45 344.628 312.25C344.628 314.05 343.818 314.95 342.693 314.95H342.618C341.493 314.95 340.653 313.975 340.653 312.25C340.653 310.525 341.493 309.55 342.618 309.55ZM342.993 308.35C342.018 308.35 341.103 308.8 340.578 309.7V308.5H339.228V319H340.653V314.875C341.103 315.7 341.943 316.15 342.918 316.15C344.943 316.15 346.053 314.65 346.053 312.25C346.053 309.85 344.943 308.35 342.993 308.35ZM351.492 316.15C353.217 316.15 354.492 315.25 354.492 313.9C354.492 312.55 353.442 311.95 352.317 311.725L351.192 311.5C350.442 311.35 350.067 310.975 350.067 310.525C350.067 310 350.667 309.55 351.492 309.55H351.642C352.542 309.55 353.142 310.15 353.217 310.825H354.642C354.567 309.55 353.517 308.35 351.567 308.35C349.692 308.35 348.642 309.4 348.642 310.6C348.642 311.875 349.767 312.625 351.117 312.85L351.942 313C352.692 313.15 353.067 313.45 353.067 313.975C353.067 314.575 352.392 314.95 351.642 314.95H351.492C350.592 314.95 349.767 314.5 349.692 313.675H348.267C348.342 315.055 349.467 316.15 351.492 316.15ZM359.541 310.3H361.341V308.5H359.541V310.3ZM359.541 316H361.341V314.2H359.541V316ZM366.661 316H368.161L372.211 305.5H370.711L366.661 316ZM375.655 316H377.155L381.205 305.5H379.705L375.655 316ZM386.899 314.95C386.209 314.95 385.699 314.485 385.699 313.87C385.699 313.18 386.329 312.76 387.199 312.685L389.074 312.535V313.3C389.074 314.2 387.949 314.95 387.049 314.95H386.899ZM386.749 316.15C387.949 316.15 388.849 315.475 389.149 314.8C389.149 314.875 389.149 315.625 389.224 316H390.574C390.499 315.475 390.499 314.8 390.499 314.35V311.2C390.499 309.67 389.449 308.35 387.454 308.35C385.759 308.35 384.514 309.295 384.424 310.675H385.849C385.939 309.925 386.614 309.55 387.424 309.55H387.499C388.474 309.55 389.074 310.15 389.074 311.2V311.44L387.004 311.605C385.789 311.71 384.274 312.22 384.274 313.93C384.274 315.205 385.324 316.15 386.749 316.15ZM396.583 309.55H396.658C397.783 309.55 398.593 310.45 398.593 312.25C398.593 314.05 397.783 314.95 396.658 314.95H396.583C395.458 314.95 394.618 313.975 394.618 312.25C394.618 310.525 395.458 309.55 396.583 309.55ZM396.958 308.35C395.983 308.35 395.068 308.8 394.543 309.7V308.5H393.193V319H394.618V314.875C395.068 315.7 395.908 316.15 396.883 316.15C398.908 316.15 400.018 314.65 400.018 312.25C400.018 309.85 398.908 308.35 396.958 308.35ZM406.207 307.15V305.5H404.632V307.15H406.207ZM408.847 316V314.77H406.132V308.5H402.457V309.73H404.707V314.77H401.992V316H408.847ZM413.506 316H415.306V314.2H413.506V316ZM423.43 316.15C425.305 316.15 426.7 315.1 426.85 313.6H425.425C425.275 314.35 424.555 314.95 423.505 314.95H423.355C422.305 314.95 421.225 314.2 421.225 312.25C421.225 310.6 422.23 309.55 423.43 309.55H423.58C424.405 309.55 425.2 310.075 425.35 310.975H426.775C426.625 309.4 425.155 308.35 423.58 308.35C421.405 308.35 419.8 309.925 419.8 312.25C419.8 314.575 421.255 316.15 423.43 316.15ZM432.395 316.15C434.495 316.15 435.995 314.65 435.995 312.25C435.995 309.925 434.42 308.35 432.395 308.35C430.37 308.35 428.795 309.925 428.795 312.25C428.795 314.65 430.295 316.15 432.395 316.15ZM432.47 314.95H432.32C431.12 314.95 430.22 313.975 430.22 312.25C430.22 310.525 431.12 309.55 432.32 309.55H432.47C433.67 309.55 434.57 310.525 434.57 312.25C434.57 313.975 433.67 314.95 432.47 314.95ZM440.759 316V312.25C440.759 310.75 441.584 309.85 442.934 309.85H444.509V308.425H442.934C441.959 308.425 440.984 309.025 440.684 310.15V308.5H439.334V316H440.759ZM450.218 314.95H450.143C449.018 314.95 448.208 314.05 448.208 312.25C448.208 310.45 449.018 309.55 450.143 309.55H450.218C451.343 309.55 452.183 310.525 452.183 312.25C452.183 313.975 451.343 314.95 450.218 314.95ZM449.843 316.15C450.818 316.15 451.733 315.7 452.258 314.8V316H453.608V305.5H452.183V309.625C451.733 308.8 450.893 308.35 449.918 308.35C447.893 308.35 446.783 309.85 446.783 312.25C446.783 314.65 447.893 316.15 449.843 316.15ZM458.477 316H460.277V314.2H458.477V316ZM468.401 316.15C470.276 316.15 471.671 315.1 471.821 313.6H470.396C470.246 314.35 469.526 314.95 468.476 314.95H468.326C467.276 314.95 466.196 314.2 466.196 312.25C466.196 310.6 467.201 309.55 468.401 309.55H468.551C469.376 309.55 470.171 310.075 470.321 310.975H471.746C471.596 309.4 470.126 308.35 468.551 308.35C466.376 308.35 464.771 309.925 464.771 312.25C464.771 314.575 466.226 316.15 468.401 316.15ZM477.365 316.15C479.465 316.15 480.965 314.65 480.965 312.25C480.965 309.925 479.39 308.35 477.365 308.35C475.34 308.35 473.765 309.925 473.765 312.25C473.765 314.65 475.265 316.15 477.365 316.15ZM477.44 314.95H477.29C476.09 314.95 475.19 313.975 475.19 312.25C475.19 310.525 476.09 309.55 477.29 309.55H477.44C478.64 309.55 479.54 310.525 479.54 312.25C479.54 313.975 478.64 314.95 477.44 314.95ZM482.639 316H484.064V311.65C484.064 310.15 484.334 309.55 485.009 309.55H485.039C485.699 309.55 485.789 310.225 485.789 311.35V316H487.214V311.65C487.214 310.15 487.559 309.55 488.159 309.55H488.189C489.014 309.55 488.939 310.225 488.939 311.35V316H490.364V311.2C490.364 309.55 490.229 308.35 488.654 308.35C487.679 308.35 487.349 308.875 487.049 309.61C486.839 308.815 486.374 308.35 485.564 308.35C484.784 308.35 484.364 308.8 484.064 309.61V308.5H482.639V316ZM492.579 316H494.079L498.129 305.5H496.629L492.579 316ZM505.218 316L507.993 308.5H506.493L504.363 314.5L502.218 308.5H500.718L503.493 316H505.218ZM517.317 316V314.74H514.317V305.5H513.192L510.492 308.125V309.85L512.892 307.525V314.74H509.667V316H517.317ZM519.561 316H521.061L525.111 305.5H523.611L519.561 316ZM530.805 314.95C530.115 314.95 529.605 314.485 529.605 313.87C529.605 313.18 530.235 312.76 531.105 312.685L532.98 312.535V313.3C532.98 314.2 531.855 314.95 530.955 314.95H530.805ZM530.655 316.15C531.855 316.15 532.755 315.475 533.055 314.8C533.055 314.875 533.055 315.625 533.13 316H534.48C534.405 315.475 534.405 314.8 534.405 314.35V311.2C534.405 309.67 533.355 308.35 531.36 308.35C529.665 308.35 528.42 309.295 528.33 310.675H529.755C529.845 309.925 530.52 309.55 531.33 309.55H531.405C532.38 309.55 532.98 310.15 532.98 311.2V311.44L530.91 311.605C529.695 311.71 528.18 312.22 528.18 313.93C528.18 315.205 529.23 316.15 530.655 316.15ZM543.399 308.5H541.974V312.55C541.974 314.05 541.044 314.95 540.099 314.95H539.949C538.944 314.95 538.449 314.35 538.449 313.15V308.5H537.024V313.45C537.024 315.025 537.894 316.15 539.574 316.15C540.879 316.15 541.689 315.4 541.974 314.575V316H543.399V308.5ZM549.573 316H552.573V314.755H550.023C549.573 314.755 549.423 314.605 549.423 314.155V309.73H552.048V308.5H549.423V306.07H547.998V308.5H545.898V309.73H547.998V314.425C547.998 315.475 548.523 316 549.573 316ZM555.088 316H556.513V311.95C556.513 310.45 557.488 309.55 558.463 309.55H558.613C559.588 309.55 560.188 310.225 560.188 311.35V316H561.613V311.2C561.613 309.55 560.788 308.35 559.063 308.35C557.713 308.35 556.813 309.1 556.513 309.925V305.5H555.088V316ZM567.307 316.15C569.407 316.15 570.907 314.65 570.907 312.25C570.907 309.925 569.332 308.35 567.307 308.35C565.282 308.35 563.707 309.925 563.707 312.25C563.707 314.65 565.207 316.15 567.307 316.15ZM567.382 314.95H567.232C566.032 314.95 565.132 313.975 565.132 312.25C565.132 310.525 566.032 309.55 567.232 309.55H567.382C568.582 309.55 569.482 310.525 569.482 312.25C569.482 313.975 568.582 314.95 567.382 314.95ZM575.671 316V312.25C575.671 310.75 576.496 309.85 577.846 309.85H579.421V308.425H577.846C576.871 308.425 575.896 309.025 575.596 310.15V308.5H574.246V316H575.671ZM586.09 307.15V305.5H584.515V307.15H586.09ZM588.73 316V314.77H586.015V308.5H582.34V309.73H584.59V314.77H581.875V316H588.73ZM594.334 316.15C596.059 316.15 597.334 315.25 597.334 313.9C597.334 312.55 596.284 311.95 595.159 311.725L594.034 311.5C593.284 311.35 592.909 310.975 592.909 310.525C592.909 310 593.509 309.55 594.334 309.55H594.484C595.384 309.55 595.984 310.15 596.059 310.825H597.484C597.409 309.55 596.359 308.35 594.409 308.35C592.534 308.35 591.484 309.4 591.484 310.6C591.484 311.875 592.609 312.625 593.959 312.85L594.784 313C595.534 313.15 595.909 313.45 595.909 313.975C595.909 314.575 595.234 314.95 594.484 314.95H594.334C593.434 314.95 592.609 314.5 592.534 313.675H591.109C591.184 315.055 592.309 316.15 594.334 316.15ZM603.328 309.55H603.478C604.498 309.55 605.143 310.3 605.143 311.275H601.438C601.723 310 602.563 309.55 603.328 309.55ZM606.568 313.78H605.143C604.993 314.575 604.318 314.95 603.523 314.95C602.503 314.95 601.423 314.2 601.333 312.475H606.583V311.725C606.583 309.805 605.323 308.35 603.403 308.35C601.618 308.35 599.908 309.64 599.908 312.235C599.908 314.86 601.603 316.15 603.478 316.15C605.023 316.15 606.328 315.325 606.568 313.78Z" fill="black"/>
<path d="M259.01 243V241.74H253.535L257.075 238.605C258.08 237.735 258.785 236.76 258.785 235.335C258.785 233.685 257.63 232.35 255.455 232.35C253.46 232.35 252.095 233.595 251.9 235.47H253.325C253.505 234.195 254.3 233.55 255.35 233.55H255.5C256.55 233.55 257.36 234.315 257.36 235.47C257.36 236.7 256.415 237.42 255.53 238.275L251.96 241.5V243H259.01Z" fill="black"/>
<path d="M648.5 243.15C650.6 243.15 652.175 242.025 652.175 240.225C652.175 238.905 651.455 238.005 650.33 237.69C651.38 237.3 652.1 236.445 652.1 235.275C652.1 233.43 650.525 232.35 648.575 232.35C646.775 232.35 645.155 233.43 645.05 235.2H646.475C646.55 234.255 647.375 233.55 648.5 233.55H648.65C649.775 233.55 650.675 234.225 650.675 235.35C650.675 236.34 649.925 237.135 648.8 237.135H647.9V238.335H648.8C649.925 238.335 650.75 238.995 650.75 240.15C650.75 241.245 649.775 241.95 648.575 241.95H648.425C647.18 241.95 646.49 241.365 646.325 240.3H644.9C645.005 241.605 646.01 243.15 648.5 243.15Z" fill="black"/>
<path d="M662.05 316H663.55V311.8H666.025C668.02 311.8 669.4 310.675 669.4 308.65C669.4 306.625 668.02 305.5 666.025 305.5H662.05V316ZM663.55 310.45V306.85H665.8C667.15 306.85 667.9 307.45 667.9 308.65C667.9 309.925 667.15 310.45 665.8 310.45H663.55ZM674.494 305.35C671.944 305.35 670.594 307.375 670.594 310.75C670.594 314.125 671.944 316.15 674.494 316.15C677.044 316.15 678.394 314.125 678.394 310.75C678.394 307.375 677.044 305.35 674.494 305.35ZM674.419 314.8C672.919 314.8 672.094 313.3 672.094 310.75C672.094 308.2 672.919 306.7 674.419 306.7H674.569C676.069 306.7 676.894 308.2 676.894 310.75C676.894 313.3 676.069 314.8 674.569 314.8H674.419ZM685.738 308.65H687.238C687.163 306.625 685.963 305.35 683.638 305.35C681.538 305.35 680.188 306.475 680.188 308.275C680.188 309.925 680.998 310.795 682.513 311.2L683.638 311.5C685.153 311.905 685.588 312.325 685.588 313.3C685.588 314.2 684.988 314.8 683.713 314.8H683.563C681.988 314.8 681.163 314.05 681.163 312.625H679.663C679.738 314.875 681.013 316.15 683.563 316.15C686.038 316.15 687.088 314.95 687.088 313.225C687.088 311.575 686.203 310.675 684.538 310.225L682.888 309.775C682.048 309.55 681.688 309.1 681.688 308.275C681.688 307.375 682.288 306.7 683.563 306.7H683.713C684.988 306.7 685.663 307.45 685.738 308.65ZM691.732 316H693.232V306.85H696.532V305.5H688.432V306.85H691.732V316ZM707.246 316H708.671V311.95C708.671 310.45 709.646 309.55 710.621 309.55H710.771C711.746 309.55 712.346 310.225 712.346 311.35V316H713.771V311.2C713.771 309.55 712.946 308.35 711.221 308.35C709.871 308.35 708.971 309.1 708.671 309.925V305.5H707.246V316ZM719.72 316H722.72V314.755H720.17C719.72 314.755 719.57 314.605 719.57 314.155V309.73H722.195V308.5H719.57V306.07H718.145V308.5H716.045V309.73H718.145V314.425C718.145 315.475 718.67 316 719.72 316ZM728.714 316H731.714V314.755H729.164C728.714 314.755 728.564 314.605 728.564 314.155V309.73H731.189V308.5H728.564V306.07H727.139V308.5H725.039V309.73H727.139V314.425C727.139 315.475 727.664 316 728.714 316ZM737.618 309.55H737.693C738.818 309.55 739.628 310.45 739.628 312.25C739.628 314.05 738.818 314.95 737.693 314.95H737.618C736.493 314.95 735.653 313.975 735.653 312.25C735.653 310.525 736.493 309.55 737.618 309.55ZM737.993 308.35C737.018 308.35 736.103 308.8 735.578 309.7V308.5H734.228V319H735.653V314.875C736.103 315.7 736.943 316.15 737.918 316.15C739.943 316.15 741.053 314.65 741.053 312.25C741.053 309.85 739.943 308.35 737.993 308.35ZM746.492 316.15C748.217 316.15 749.492 315.25 749.492 313.9C749.492 312.55 748.442 311.95 747.317 311.725L746.192 311.5C745.442 311.35 745.067 310.975 745.067 310.525C745.067 310 745.667 309.55 746.492 309.55H746.642C747.542 309.55 748.142 310.15 748.217 310.825H749.642C749.567 309.55 748.517 308.35 746.567 308.35C744.692 308.35 743.642 309.4 743.642 310.6C743.642 311.875 744.767 312.625 746.117 312.85L746.942 313C747.692 313.15 748.067 313.45 748.067 313.975C748.067 314.575 747.392 314.95 746.642 314.95H746.492C745.592 314.95 744.767 314.5 744.692 313.675H743.267C743.342 315.055 744.467 316.15 746.492 316.15ZM754.541 310.3H756.341V308.5H754.541V310.3ZM754.541 316H756.341V314.2H754.541V316ZM761.661 316H763.161L767.211 305.5H765.711L761.661 316ZM770.655 316H772.155L776.205 305.5H774.705L770.655 316ZM781.899 314.95C781.209 314.95 780.699 314.485 780.699 313.87C780.699 313.18 781.329 312.76 782.199 312.685L784.074 312.535V313.3C784.074 314.2 782.949 314.95 782.049 314.95H781.899ZM781.749 316.15C782.949 316.15 783.849 315.475 784.149 314.8C784.149 314.875 784.149 315.625 784.224 316H785.574C785.499 315.475 785.499 314.8 785.499 314.35V311.2C785.499 309.67 784.449 308.35 782.454 308.35C780.759 308.35 779.514 309.295 779.424 310.675H780.849C780.939 309.925 781.614 309.55 782.424 309.55H782.499C783.474 309.55 784.074 310.15 784.074 311.2V311.44L782.004 311.605C780.789 311.71 779.274 312.22 779.274 313.93C779.274 315.205 780.324 316.15 781.749 316.15ZM791.583 309.55H791.658C792.783 309.55 793.593 310.45 793.593 312.25C793.593 314.05 792.783 314.95 791.658 314.95H791.583C790.458 314.95 789.618 313.975 789.618 312.25C789.618 310.525 790.458 309.55 791.583 309.55ZM791.958 308.35C790.983 308.35 790.068 308.8 789.543 309.7V308.5H788.193V319H789.618V314.875C790.068 315.7 790.908 316.15 791.883 316.15C793.908 316.15 795.018 314.65 795.018 312.25C795.018 309.85 793.908 308.35 791.958 308.35ZM801.207 307.15V305.5H799.632V307.15H801.207ZM803.847 316V314.77H801.132V308.5H797.457V309.73H799.707V314.77H796.992V316H803.847ZM808.506 316H810.306V314.2H808.506V316ZM818.43 316.15C820.305 316.15 821.7 315.1 821.85 313.6H820.425C820.275 314.35 819.555 314.95 818.505 314.95H818.355C817.305 314.95 816.225 314.2 816.225 312.25C816.225 310.6 817.23 309.55 818.43 309.55H818.58C819.405 309.55 820.2 310.075 820.35 310.975H821.775C821.625 309.4 820.155 308.35 818.58 308.35C816.405 308.35 814.8 309.925 814.8 312.25C814.8 314.575 816.255 316.15 818.43 316.15ZM827.395 316.15C829.495 316.15 830.995 314.65 830.995 312.25C830.995 309.925 829.42 308.35 827.395 308.35C825.37 308.35 823.795 309.925 823.795 312.25C823.795 314.65 825.295 316.15 827.395 316.15ZM827.47 314.95H827.32C826.12 314.95 825.22 313.975 825.22 312.25C825.22 310.525 826.12 309.55 827.32 309.55H827.47C828.67 309.55 829.57 310.525 829.57 312.25C829.57 313.975 828.67 314.95 827.47 314.95ZM835.759 316V312.25C835.759 310.75 836.584 309.85 837.934 309.85H839.509V308.425H837.934C836.959 308.425 835.984 309.025 835.684 310.15V308.5H834.334V316H835.759ZM845.218 314.95H845.143C844.018 314.95 843.208 314.05 843.208 312.25C843.208 310.45 844.018 309.55 845.143 309.55H845.218C846.343 309.55 847.183 310.525 847.183 312.25C847.183 313.975 846.343 314.95 845.218 314.95ZM844.843 316.15C845.818 316.15 846.733 315.7 847.258 314.8V316H848.608V305.5H847.183V309.625C846.733 308.8 845.893 308.35 844.918 308.35C842.893 308.35 841.783 309.85 841.783 312.25C841.783 314.65 842.893 316.15 844.843 316.15ZM853.477 316H855.277V314.2H853.477V316ZM863.401 316.15C865.276 316.15 866.671 315.1 866.821 313.6H865.396C865.246 314.35 864.526 314.95 863.476 314.95H863.326C862.276 314.95 861.196 314.2 861.196 312.25C861.196 310.6 862.201 309.55 863.401 309.55H863.551C864.376 309.55 865.171 310.075 865.321 310.975H866.746C866.596 309.4 865.126 308.35 863.551 308.35C861.376 308.35 859.771 309.925 859.771 312.25C859.771 314.575 861.226 316.15 863.401 316.15ZM872.365 316.15C874.465 316.15 875.965 314.65 875.965 312.25C875.965 309.925 874.39 308.35 872.365 308.35C870.34 308.35 868.765 309.925 868.765 312.25C868.765 314.65 870.265 316.15 872.365 316.15ZM872.44 314.95H872.29C871.09 314.95 870.19 313.975 870.19 312.25C870.19 310.525 871.09 309.55 872.29 309.55H872.44C873.64 309.55 874.54 310.525 874.54 312.25C874.54 313.975 873.64 314.95 872.44 314.95ZM877.639 316H879.064V311.65C879.064 310.15 879.334 309.55 880.009 309.55H880.039C880.699 309.55 880.789 310.225 880.789 311.35V316H882.214V311.65C882.214 310.15 882.559 309.55 883.159 309.55H883.189C884.014 309.55 883.939 310.225 883.939 311.35V316H885.364V311.2C885.364 309.55 885.229 308.35 883.654 308.35C882.679 308.35 882.349 308.875 882.049 309.61C881.839 308.815 881.374 308.35 880.564 308.35C879.784 308.35 879.364 308.8 879.064 309.61V308.5H877.639V316ZM887.579 316H889.079L893.129 305.5H891.629L887.579 316ZM900.218 316L902.993 308.5H901.493L899.363 314.5L897.218 308.5H895.718L898.493 316H900.218ZM912.317 316V314.74H909.317V305.5H908.192L905.492 308.125V309.85L907.892 307.525V314.74H904.667V316H912.317ZM914.561 316H916.061L920.111 305.5H918.611L914.561 316ZM929.93 312.25C929.93 309.85 928.82 308.35 926.795 308.35C925.82 308.35 924.98 308.8 924.53 309.625V305.5H923.105V316H924.455V314.8C924.98 315.7 925.895 316.15 926.87 316.15C928.82 316.15 929.93 314.65 929.93 312.25ZM924.53 312.25C924.53 310.525 925.37 309.55 926.495 309.55H926.57C927.695 309.55 928.505 310.45 928.505 312.25C928.505 314.05 927.695 314.95 926.57 314.95H926.495C925.37 314.95 924.53 313.975 924.53 312.25ZM934.799 314.95C934.109 314.95 933.599 314.485 933.599 313.87C933.599 313.18 934.229 312.76 935.099 312.685L936.974 312.535V313.3C936.974 314.2 935.849 314.95 934.949 314.95H934.799ZM934.649 316.15C935.849 316.15 936.749 315.475 937.049 314.8C937.049 314.875 937.049 315.625 937.124 316H938.474C938.399 315.475 938.399 314.8 938.399 314.35V311.2C938.399 309.67 937.349 308.35 935.354 308.35C933.659 308.35 932.414 309.295 932.324 310.675H933.749C933.839 309.925 934.514 309.55 935.324 309.55H935.399C936.374 309.55 936.974 310.15 936.974 311.2V311.44L934.904 311.605C933.689 311.71 932.174 312.22 932.174 313.93C932.174 315.205 933.224 316.15 934.649 316.15ZM944.573 316H947.573V314.755H945.023C944.573 314.755 944.423 314.605 944.423 314.155V309.73H947.048V308.5H944.423V306.07H942.998V308.5H940.898V309.73H942.998V314.425C942.998 315.475 943.523 316 944.573 316ZM953.343 316.15C955.218 316.15 956.613 315.1 956.763 313.6H955.338C955.188 314.35 954.468 314.95 953.418 314.95H953.268C952.218 314.95 951.138 314.2 951.138 312.25C951.138 310.6 952.143 309.55 953.343 309.55H953.493C954.318 309.55 955.113 310.075 955.263 310.975H956.688C956.538 309.4 955.068 308.35 953.493 308.35C951.318 308.35 949.713 309.925 949.713 312.25C949.713 314.575 951.168 316.15 953.343 316.15ZM959.082 316H960.507V311.95C960.507 310.45 961.482 309.55 962.457 309.55H962.607C963.582 309.55 964.182 310.225 964.182 311.35V316H965.607V311.2C965.607 309.55 964.782 308.35 963.057 308.35C961.707 308.35 960.807 309.1 960.507 309.925V305.5H959.082V316Z" fill="black"/>
<rect x="33.5" y="181.5" width="85" height="39" rx="5.5" fill="#71BC8F" stroke="black"/>
<rect x="133.5" y="181.5" width="85" height="39" rx="5.5" fill="#F2FFA1" stroke="black"/>
<path d="M49.2 208.2C50.84 208.2 52.1 207.3 52.5 206.4C52.5 206.64 52.52 207.52 52.6 208H54.2C54.1 207.3 54.1 206.4 54.1 205.8V201.6C54.1 199.56 52.76 197.8 50.12 197.8C47.9 197.8 46.26 199.04 46.14 200.86H47.84C47.96 199.78 48.92 199.24 50.04 199.24H50.18C51.56 199.24 52.4 200.1 52.4 201.6V201.94L49.52 202.18C47.92 202.3 45.94 202.98 45.94 205.24C45.94 206.94 47.34 208.2 49.2 208.2ZM49.38 206.76C48.38 206.76 47.64 206.08 47.64 205.16C47.64 204.18 48.52 203.58 49.78 203.48L52.4 203.28V204.4C52.4 205.7 50.84 206.76 49.56 206.76H49.38ZM58.7869 212V206.54C59.3069 207.5 60.5869 208.2 61.9669 208.2C64.4869 208.2 66.4469 206.26 66.4469 203C66.4469 199.74 64.6269 197.8 62.0869 197.8C60.7269 197.8 59.3069 198.5 58.7869 199.46V198H57.0869V212H58.7869ZM61.7269 206.76C60.0669 206.76 58.7869 205.32 58.7869 203C58.7869 200.68 60.0669 199.24 61.7269 199.24H61.8669C63.5869 199.24 64.7469 200.68 64.7469 203C64.7469 205.32 63.5869 206.76 61.8669 206.76H61.7269ZM70.6228 212V206.54C71.1428 207.5 72.4228 208.2 73.8028 208.2C76.3228 208.2 78.2828 206.26 78.2828 203C78.2828 199.74 76.4628 197.8 73.9228 197.8C72.5628 197.8 71.1428 198.5 70.6228 199.46V198H68.9228V212H70.6228ZM73.5628 206.76C71.9028 206.76 70.6228 205.32 70.6228 203C70.6228 200.68 71.9028 199.24 73.5628 199.24H73.7028C75.4228 199.24 76.5828 200.68 76.5828 203C76.5828 205.32 75.4228 206.76 73.7028 206.76H73.5628ZM88.6788 209.5V208H79.8188V209.5H88.6788ZM92.6173 196.2V194.16H90.7173V196.2H92.6173ZM92.5173 208V198H90.8173V208H92.5173ZM99.343 208.2C100.703 208.2 102.123 207.5 102.663 206.54V208H104.363V194H102.663V199.46C102.123 198.5 100.843 197.8 99.483 197.8C96.943 197.8 94.983 199.74 94.983 203C94.983 206.26 96.803 208.2 99.343 208.2ZM99.563 206.76C97.843 206.76 96.703 205.32 96.703 203C96.703 200.68 97.843 199.24 99.563 199.24H99.703C101.383 199.24 102.663 200.68 102.663 203C102.663 205.32 101.383 206.76 99.703 206.76H99.563Z" fill="black"/>
<path d="M153.22 208.2C156.3 208.2 158.3 206.68 158.3 204.22C158.3 202 156.94 200.76 154.56 200.28L152.32 199.84C151.06 199.58 150.26 198.92 150.26 197.78C150.26 196.44 151.48 195.44 153.3 195.44H153.5C155.28 195.44 156.6 196.48 156.72 198.16H158.52C158.42 195.48 156.46 193.8 153.4 193.8C150.38 193.8 148.46 195.6 148.46 197.8C148.46 199.96 149.74 201.18 151.94 201.64L154.18 202.1C155.74 202.42 156.5 203.1 156.5 204.3C156.5 205.56 155.44 206.56 153.48 206.56H153.28C151.1 206.56 149.56 205.5 149.56 203.54H147.76C147.82 206.58 149.9 208.2 153.22 208.2ZM165.021 208.2C167.081 208.2 168.761 207.08 169.141 205.08H167.441C167.181 206.22 166.261 206.76 165.161 206.76H165.001C163.641 206.76 162.181 205.7 162.101 203.24H169.161V202.24C169.161 199.64 167.541 197.8 164.981 197.8C162.641 197.8 160.401 199.5 160.401 202.98C160.401 206.46 162.541 208.2 165.021 208.2ZM162.181 201.86C162.521 199.88 163.781 199.24 164.901 199.24H165.061C166.361 199.24 167.381 200.12 167.461 201.86H162.181ZM175.805 208.2C178.045 208.2 179.585 206.86 179.845 204.74H178.145C177.945 205.9 177.105 206.76 175.905 206.76H175.725C173.725 206.76 172.785 205 172.785 203C172.785 201 173.725 199.24 175.725 199.24H175.905C177.105 199.24 177.945 200.08 178.145 201.26H179.845C179.645 199.12 178.045 197.8 175.805 197.8C172.765 197.8 171.085 200.06 171.085 203C171.085 205.94 172.765 208.2 175.805 208.2ZM183.951 208V203C183.951 200.84 185.071 199.52 186.911 199.52H187.711V197.9H186.811C185.491 197.9 184.271 198.7 183.851 200.22V198H182.251V208H183.951ZM193.302 208.2C195.362 208.2 197.042 207.08 197.422 205.08H195.722C195.462 206.22 194.542 206.76 193.442 206.76H193.282C191.922 206.76 190.462 205.7 190.382 203.24H197.442V202.24C197.442 199.64 195.822 197.8 193.262 197.8C190.922 197.8 188.682 199.5 188.682 202.98C188.682 206.46 190.822 208.2 193.302 208.2ZM190.462 201.86C190.802 199.88 192.062 199.24 193.182 199.24H193.342C194.642 199.24 195.662 200.12 195.742 201.86H190.462ZM205.27 208V206.5H203.33C202.73 206.5 202.53 206.3 202.53 205.7V199.46H204.97V198H202.53V194.76H200.83V198H198.59V199.46H200.83V205.94C200.83 207.3 201.57 208 202.93 208H205.27Z" fill="black"/>
<path d="M75.6464 259.354C75.8417 259.549 76.1583 259.549 76.3536 259.354L79.5355 256.172C79.7308 255.976 79.7308 255.66 79.5355 255.464C79.3403 255.269 79.0237 255.269 78.8284 255.464L76 258.293L73.1716 255.464C72.9763 255.269 72.6597 255.269 72.4645 255.464C72.2692 255.66 72.2692 255.976 72.4645 256.172L75.6464 259.354ZM75.5 221L75.5 259L76.5 259L76.5 221L75.5 221Z" fill="black"/>
<path d="M175.646 259.354C175.842 259.549 176.158 259.549 176.354 259.354L179.536 256.172C179.731 255.976 179.731 255.66 179.536 255.464C179.34 255.269 179.024 255.269 178.828 255.464L176 258.293L173.172 255.464C172.976 255.269 172.66 255.269 172.464 255.464C172.269 255.66 172.269 255.976 172.464 256.172L175.646 259.354ZM175.5 221L175.5 259L176.5 259L176.5 221L175.5 221Z" fill="black"/>
<path d="M249.354 312.354C249.549 312.158 249.549 311.842 249.354 311.646L246.172 308.464C245.976 308.269 245.66 308.269 245.464 308.464C245.269 308.66 245.269 308.976 245.464 309.172L248.293 312L245.464 314.828C245.269 315.024 245.269 315.34 245.464 315.536C245.66 315.731 245.976 315.731 246.172 315.536L249.354 312.354ZM227 312.5L249 312.5L249 311.5L227 311.5L227 312.5Z" fill="black"/>
<path d="M644.354 312.354C644.549 312.158 644.549 311.842 644.354 311.646L641.172 308.464C640.976 308.269 640.66 308.269 640.464 308.464C640.269 308.66 640.269 308.976 640.464 309.172L643.293 312L640.464 314.828C640.269 315.024 640.269 315.34 640.464 315.536C640.66 315.731 640.976 315.731 641.172 315.536L644.354 312.354ZM622 312.5L644 312.5L644 311.5L622 311.5L622 312.5Z" fill="black"/>
</g>
<defs>
<clipPath id="clip0_406_3510">
<rect width="1000" height="600" fill="white"/>
</clipPath>
</defs>
</svg>
