<svg width="1000" height="600" viewBox="0 0 1000 600" fill="none" xmlns="http://www.w3.org/2000/svg">
<g clip-path="url(#clip0_406_3510)">
<rect width="1000" height="600" fill="#F6F6F6"/>
<path d="M37 259.5H226.5V354C226.5 362.56 219.56 369.5 211 369.5H21.5V275C21.5 266.44 28.4396 259.5 37 259.5Z" fill="white" stroke="black"/>
<path d="M265 281.5H621.5V326C621.5 334.56 614.56 341.5 606 341.5H249.5V297C249.5 288.44 256.44 281.5 265 281.5Z" fill="white" stroke="black"/>
<path d="M660 281.5H978.5V326C978.5 334.56 971.56 341.5 963 341.5H644.5V297C644.5 288.44 651.44 281.5 660 281.5Z" fill="white" stroke="black"/>
<path d="M42.131 297.17C43.576 297.17 44.528 296.388 44.885 295.385V297H46.33V288.5H44.885V293.09C44.885 294.875 43.78 295.946 42.641 295.946H42.488C41.264 295.946 40.669 295.215 40.669 293.77V288.5H39.224V294.11C39.224 295.895 40.227 297.17 42.131 297.17ZM51.7425 297.17C53.6805 297.17 55.0235 296.184 55.0235 294.62C55.0235 293.124 53.9865 292.478 52.7285 292.223L51.3855 291.934C50.4675 291.747 50.0765 291.407 50.0765 290.761C50.0765 290.115 50.7055 289.554 51.7255 289.554H51.8785C53.0005 289.554 53.5615 290.285 53.6635 291.101H55.1085C55.0745 289.571 53.9865 288.33 51.7935 288.33C50.1275 288.33 48.6315 289.231 48.6315 290.914C48.6315 292.359 49.7195 293.022 51.0625 293.294L52.3035 293.549C53.2555 293.736 53.5785 294.127 53.5785 294.705C53.5785 295.47 52.8645 295.946 51.8785 295.946H51.7255C50.6715 295.946 49.8385 295.47 49.7365 294.399H48.2915C48.3255 295.997 49.5155 297.17 51.7425 297.17ZM60.6059 297.17C62.3569 297.17 63.7849 296.218 64.1079 294.518H62.6629C62.4419 295.487 61.6599 295.946 60.7249 295.946H60.5889C59.4329 295.946 58.1919 295.045 58.1239 292.954H64.1249V292.104C64.1249 289.894 62.7479 288.33 60.5719 288.33C58.5829 288.33 56.6789 289.775 56.6789 292.733C56.6789 295.691 58.4979 297.17 60.6059 297.17ZM58.1919 291.781C58.4809 290.098 59.5519 289.554 60.5039 289.554H60.6399C61.7449 289.554 62.6119 290.302 62.6799 291.781H58.1919ZM72.7145 297.17C74.1085 297.17 75.1795 296.405 75.5195 295.64C75.5195 295.844 75.5365 296.592 75.6045 297H76.9645C76.8795 296.405 76.8795 295.64 76.8795 295.13V291.56C76.8795 289.826 75.7405 288.33 73.4965 288.33C71.6095 288.33 70.2155 289.384 70.1135 290.931H71.5585C71.6605 290.013 72.4765 289.554 73.4285 289.554H73.5475C74.7205 289.554 75.4345 290.285 75.4345 291.56V291.849L72.9865 292.053C71.6265 292.155 69.9435 292.733 69.9435 294.654C69.9435 296.099 71.1335 297.17 72.7145 297.17ZM72.8675 295.946C72.0175 295.946 71.3885 295.368 71.3885 294.586C71.3885 293.753 72.1365 293.243 73.2075 293.158L75.4345 292.988V293.94C75.4345 295.045 74.1085 295.946 73.0205 295.946H72.8675ZM80.8634 300.4V295.759C81.3054 296.575 82.3934 297.17 83.5664 297.17C85.7084 297.17 87.3744 295.521 87.3744 292.75C87.3744 289.979 85.8274 288.33 83.6684 288.33C82.5124 288.33 81.3054 288.925 80.8634 289.741V288.5H79.4184V300.4H80.8634ZM83.3624 295.946C81.9514 295.946 80.8634 294.722 80.8634 292.75C80.8634 290.778 81.9514 289.554 83.3624 289.554H83.4814C84.9434 289.554 85.9294 290.778 85.9294 292.75C85.9294 294.722 84.9434 295.946 83.4814 295.946H83.3624ZM90.9239 300.4V295.759C91.3659 296.575 92.4539 297.17 93.6269 297.17C95.7689 297.17 97.4349 295.521 97.4349 292.75C97.4349 289.979 95.8879 288.33 93.7289 288.33C92.5729 288.33 91.3659 288.925 90.9239 289.741V288.5H89.4789V300.4H90.9239ZM93.4229 295.946C92.0119 295.946 90.9239 294.722 90.9239 292.75C90.9239 290.778 92.0119 289.554 93.4229 289.554H93.5419C95.0039 289.554 95.9899 290.778 95.9899 292.75C95.9899 294.722 95.0039 295.946 93.5419 295.946H93.4229ZM106.271 298.275V297H98.7405V298.275H106.271ZM109.619 286.97V285.236H108.004V286.97H109.619ZM109.534 297V288.5H108.089V297H109.534ZM115.336 297.17C116.492 297.17 117.699 296.575 118.158 295.759V297H119.603V285.1H118.158V289.741C117.699 288.925 116.611 288.33 115.455 288.33C113.296 288.33 111.63 289.979 111.63 292.75C111.63 295.521 113.177 297.17 115.336 297.17ZM115.523 295.946C114.061 295.946 113.092 294.722 113.092 292.75C113.092 290.778 114.061 289.554 115.523 289.554H115.642C117.07 289.554 118.158 290.778 118.158 292.75C118.158 294.722 117.07 295.946 115.642 295.946H115.523ZM128.645 297.17C130.039 297.17 131.11 296.405 131.45 295.64C131.45 295.844 131.467 296.592 131.535 297H132.895C132.81 296.405 132.81 295.64 132.81 295.13V291.56C132.81 289.826 131.671 288.33 129.427 288.33C127.54 288.33 126.146 289.384 126.044 290.931H127.489C127.591 290.013 128.407 289.554 129.359 289.554H129.478C130.651 289.554 131.365 290.285 131.365 291.56V291.849L128.917 292.053C127.557 292.155 125.874 292.733 125.874 294.654C125.874 296.099 127.064 297.17 128.645 297.17ZM128.798 295.946C127.948 295.946 127.319 295.368 127.319 294.586C127.319 293.753 128.067 293.243 129.138 293.158L131.365 292.988V293.94C131.365 295.045 130.039 295.946 128.951 295.946H128.798ZM136.794 297V292.41C136.794 290.727 137.814 289.554 139.225 289.554H139.361C140.619 289.554 141.18 290.336 141.18 291.696V297H142.625V291.356C142.625 289.486 141.469 288.33 139.599 288.33C138.222 288.33 137.287 288.942 136.794 289.775V288.5H135.349V297H136.794ZM148.357 297.17C149.513 297.17 150.72 296.575 151.179 295.759V297H152.624V285.1H151.179V289.741C150.72 288.925 149.632 288.33 148.476 288.33C146.317 288.33 144.651 289.979 144.651 292.75C144.651 295.521 146.198 297.17 148.357 297.17ZM148.544 295.946C147.082 295.946 146.113 294.722 146.113 292.75C146.113 290.778 147.082 289.554 148.544 289.554H148.663C150.091 289.554 151.179 290.778 151.179 292.75C151.179 294.722 150.091 295.946 148.663 295.946H148.544ZM162.193 297.17C164.131 297.17 165.474 296.184 165.474 294.62C165.474 293.124 164.437 292.478 163.179 292.223L161.836 291.934C160.918 291.747 160.527 291.407 160.527 290.761C160.527 290.115 161.156 289.554 162.176 289.554H162.329C163.451 289.554 164.012 290.285 164.114 291.101H165.559C165.525 289.571 164.437 288.33 162.244 288.33C160.578 288.33 159.082 289.231 159.082 290.914C159.082 292.359 160.17 293.022 161.513 293.294L162.754 293.549C163.706 293.736 164.029 294.127 164.029 294.705C164.029 295.47 163.315 295.946 162.329 295.946H162.176C161.122 295.946 160.289 295.47 160.187 294.399H158.742C158.776 295.997 159.966 297.17 162.193 297.17ZM171.056 297.17C172.807 297.17 174.235 296.218 174.558 294.518H173.113C172.892 295.487 172.11 295.946 171.175 295.946H171.039C169.883 295.946 168.642 295.045 168.574 292.954H174.575V292.104C174.575 289.894 173.198 288.33 171.022 288.33C169.033 288.33 167.129 289.775 167.129 292.733C167.129 295.691 168.948 297.17 171.056 297.17ZM168.642 291.781C168.931 290.098 170.002 289.554 170.954 289.554H171.09C172.195 289.554 173.062 290.302 173.13 291.781H168.642ZM180.222 297.17C182.126 297.17 183.435 296.031 183.656 294.229H182.211C182.041 295.215 181.327 295.946 180.307 295.946H180.154C178.454 295.946 177.655 294.45 177.655 292.75C177.655 291.05 178.454 289.554 180.154 289.554H180.307C181.327 289.554 182.041 290.268 182.211 291.271H183.656C183.486 289.452 182.126 288.33 180.222 288.33C177.638 288.33 176.21 290.251 176.21 292.75C176.21 295.249 177.638 297.17 180.222 297.17ZM187.147 297V292.75C187.147 290.914 188.099 289.792 189.663 289.792H190.343V288.415H189.578C188.456 288.415 187.419 289.095 187.062 290.387V288.5H185.702V297H187.147ZM195.095 297.17C196.846 297.17 198.274 296.218 198.597 294.518H197.152C196.931 295.487 196.149 295.946 195.214 295.946H195.078C193.922 295.946 192.681 295.045 192.613 292.954H198.614V292.104C198.614 289.894 197.237 288.33 195.061 288.33C193.072 288.33 191.168 289.775 191.168 292.733C191.168 295.691 192.987 297.17 195.095 297.17ZM192.681 291.781C192.97 290.098 194.041 289.554 194.993 289.554H195.129C196.234 289.554 197.101 290.302 197.169 291.781H192.681ZM205.267 297V295.725H203.618C203.108 295.725 202.938 295.555 202.938 295.045V289.741H205.012V288.5H202.938V285.746H201.493V288.5H199.589V289.741H201.493V295.249C201.493 296.405 202.122 297 203.278 297H205.267ZM43.95 320V318.725H42.301C41.791 318.725 41.621 318.555 41.621 318.045V312.741H43.695V311.5H41.621V308.746H40.176V311.5H38.272V312.741H40.176V318.249C40.176 319.405 40.805 320 41.961 320H43.95ZM49.0694 320.17C51.3304 320.17 53.0984 318.385 53.0984 315.75C53.0984 313.115 51.3304 311.33 49.0694 311.33C46.8084 311.33 45.0574 313.115 45.0574 315.75C45.0574 318.385 46.8084 320.17 49.0694 320.17ZM49.0014 318.946C47.5734 318.946 46.5024 317.773 46.5024 315.75C46.5024 313.727 47.5734 312.554 49.0014 312.554H49.1544C50.5824 312.554 51.6534 313.727 51.6534 315.75C51.6534 317.773 50.5824 318.946 49.1544 318.946H49.0014ZM62.6103 323.74C65.1943 323.74 66.7073 322.125 66.7073 319.983V311.5H65.2623V312.741C64.8543 311.976 63.9193 311.33 62.6103 311.33C60.5703 311.33 58.8703 312.809 58.8703 315.699C58.8703 318.589 60.6043 320 62.6103 320C63.9193 320 64.8033 319.354 65.2623 318.589V319.83C65.2623 321.734 64.1403 322.516 62.6953 322.516H62.5253C61.2843 322.516 60.3323 322.057 60.1453 321.139H58.7003C58.8703 322.652 60.2133 323.74 62.6103 323.74ZM62.6783 318.776C61.3523 318.776 60.3153 317.824 60.3153 315.699C60.3153 313.574 61.4203 312.554 62.7293 312.554H62.8823C64.1743 312.554 65.2623 313.744 65.2623 315.699C65.2623 317.654 64.1063 318.776 62.8143 318.776H62.6783ZM72.725 320.17C74.476 320.17 75.904 319.218 76.227 317.518H74.782C74.561 318.487 73.779 318.946 72.844 318.946H72.708C71.552 318.946 70.311 318.045 70.243 315.954H76.244V315.104C76.244 312.894 74.867 311.33 72.691 311.33C70.702 311.33 68.798 312.775 68.798 315.733C68.798 318.691 70.617 320.17 72.725 320.17ZM70.311 314.781C70.6 313.098 71.671 312.554 72.623 312.554H72.759C73.864 312.554 74.731 313.302 74.799 314.781H70.311ZM79.8341 320V315.41C79.8341 313.727 80.8541 312.554 82.2651 312.554H82.4011C83.6591 312.554 84.2201 313.336 84.2201 314.696V320H85.6651V314.356C85.6651 312.486 84.5091 311.33 82.6391 311.33C81.2621 311.33 80.3271 311.942 79.8341 312.775V311.5H78.3891V320H79.8341ZM91.6176 320.17C93.3686 320.17 94.7966 319.218 95.1196 317.518H93.6746C93.4536 318.487 92.6716 318.946 91.7366 318.946H91.6006C90.4446 318.946 89.2036 318.045 89.1356 315.954H95.1366V315.104C95.1366 312.894 93.7596 311.33 91.5836 311.33C89.5946 311.33 87.6906 312.775 87.6906 315.733C87.6906 318.691 89.5096 320.17 91.6176 320.17ZM89.2036 314.781C89.4926 313.098 90.5636 312.554 91.5156 312.554H91.6516C92.7566 312.554 93.6236 313.302 93.6916 314.781H89.2036ZM98.7267 320V315.75C98.7267 313.914 99.6787 312.792 101.243 312.792H101.923V311.415H101.158C100.036 311.415 98.9987 312.095 98.6417 313.387V311.5H97.2817V320H98.7267ZM105.652 320.17C107.046 320.17 108.117 319.405 108.457 318.64C108.457 318.844 108.474 319.592 108.542 320H109.902C109.817 319.405 109.817 318.64 109.817 318.13V314.56C109.817 312.826 108.678 311.33 106.434 311.33C104.547 311.33 103.153 312.384 103.051 313.931H104.496C104.598 313.013 105.414 312.554 106.366 312.554H106.485C107.658 312.554 108.372 313.285 108.372 314.56V314.849L105.924 315.053C104.564 315.155 102.881 315.733 102.881 317.654C102.881 319.099 104.071 320.17 105.652 320.17ZM105.805 318.946C104.955 318.946 104.326 318.368 104.326 317.586C104.326 316.753 105.074 316.243 106.145 316.158L108.372 315.988V316.94C108.372 318.045 107.046 318.946 105.958 318.946H105.805ZM116.881 320V318.725H115.232C114.722 318.725 114.552 318.555 114.552 318.045V312.741H116.626V311.5H114.552V308.746H113.107V311.5H111.203V312.741H113.107V318.249C113.107 319.405 113.736 320 114.892 320H116.881ZM121.932 320.17C123.683 320.17 125.111 319.218 125.434 317.518H123.989C123.768 318.487 122.986 318.946 122.051 318.946H121.915C120.759 318.946 119.518 318.045 119.45 315.954H125.451V315.104C125.451 312.894 124.074 311.33 121.898 311.33C119.909 311.33 118.005 312.775 118.005 315.733C118.005 318.691 119.824 320.17 121.932 320.17ZM119.518 314.781C119.807 313.098 120.878 312.554 121.83 312.554H121.966C123.071 312.554 123.938 313.302 124.006 314.781H119.518ZM134.041 320.17C135.435 320.17 136.506 319.405 136.846 318.64C136.846 318.844 136.863 319.592 136.931 320H138.291C138.206 319.405 138.206 318.64 138.206 318.13V314.56C138.206 312.826 137.067 311.33 134.823 311.33C132.936 311.33 131.542 312.384 131.44 313.931H132.885C132.987 313.013 133.803 312.554 134.755 312.554H134.874C136.047 312.554 136.761 313.285 136.761 314.56V314.849L134.313 315.053C132.953 315.155 131.27 315.733 131.27 317.654C131.27 319.099 132.46 320.17 134.041 320.17ZM134.194 318.946C133.344 318.946 132.715 318.368 132.715 317.586C132.715 316.753 133.463 316.243 134.534 316.158L136.761 315.988V316.94C136.761 318.045 135.435 318.946 134.347 318.946H134.194ZM147.716 320.17C149.654 320.17 150.997 319.184 150.997 317.62C150.997 316.124 149.96 315.478 148.702 315.223L147.359 314.934C146.441 314.747 146.05 314.407 146.05 313.761C146.05 313.115 146.679 312.554 147.699 312.554H147.852C148.974 312.554 149.535 313.285 149.637 314.101H151.082C151.048 312.571 149.96 311.33 147.767 311.33C146.101 311.33 144.605 312.231 144.605 313.914C144.605 315.359 145.693 316.022 147.036 316.294L148.277 316.549C149.229 316.736 149.552 317.127 149.552 317.705C149.552 318.47 148.838 318.946 147.852 318.946H147.699C146.645 318.946 145.812 318.47 145.71 317.399H144.265C144.299 318.997 145.489 320.17 147.716 320.17ZM154.693 309.97V308.236H153.078V309.97H154.693ZM154.608 320V311.5H153.163V320H154.608ZM160.443 323.74C163.027 323.74 164.54 322.125 164.54 319.983V311.5H163.095V312.741C162.687 311.976 161.752 311.33 160.443 311.33C158.403 311.33 156.703 312.809 156.703 315.699C156.703 318.589 158.437 320 160.443 320C161.752 320 162.636 319.354 163.095 318.589V319.83C163.095 321.734 161.973 322.516 160.528 322.516H160.358C159.117 322.516 158.165 322.057 157.978 321.139H156.533C156.703 322.652 158.046 323.74 160.443 323.74ZM160.511 318.776C159.185 318.776 158.148 317.824 158.148 315.699C158.148 313.574 159.253 312.554 160.562 312.554H160.715C162.007 312.554 163.095 313.744 163.095 315.699C163.095 317.654 161.939 318.776 160.647 318.776H160.511ZM168.586 320V315.41C168.586 313.727 169.606 312.554 171.017 312.554H171.153C172.411 312.554 172.972 313.336 172.972 314.696V320H174.417V314.356C174.417 312.486 173.261 311.33 171.391 311.33C170.014 311.33 169.079 311.942 168.586 312.775V311.5H167.141V320H168.586ZM180.37 320.17C182.121 320.17 183.549 319.218 183.872 317.518H182.427C182.206 318.487 181.424 318.946 180.489 318.946H180.353C179.197 318.946 177.956 318.045 177.888 315.954H183.889V315.104C183.889 312.894 182.512 311.33 180.336 311.33C178.347 311.33 176.443 312.775 176.443 315.733C176.443 318.691 178.262 320.17 180.37 320.17ZM177.956 314.781C178.245 313.098 179.316 312.554 180.268 312.554H180.404C181.509 312.554 182.376 313.302 182.444 314.781H177.956ZM189.23 320.17C190.386 320.17 191.593 319.575 192.052 318.759V320H193.497V308.1H192.052V312.741C191.593 311.925 190.505 311.33 189.349 311.33C187.19 311.33 185.524 312.979 185.524 315.75C185.524 318.521 187.071 320.17 189.23 320.17ZM189.417 318.946C187.955 318.946 186.986 317.722 186.986 315.75C186.986 313.778 187.955 312.554 189.417 312.554H189.536C190.964 312.554 192.052 313.778 192.052 315.75C192.052 317.722 190.964 318.946 189.536 318.946H189.417ZM41.57 343.17C42.964 343.17 44.035 342.405 44.375 341.64C44.375 341.844 44.392 342.592 44.46 343H45.82C45.735 342.405 45.735 341.64 45.735 341.13V337.56C45.735 335.826 44.596 334.33 42.352 334.33C40.465 334.33 39.071 335.384 38.969 336.931H40.414C40.516 336.013 41.332 335.554 42.284 335.554H42.403C43.576 335.554 44.29 336.285 44.29 337.56V337.849L41.842 338.053C40.482 338.155 38.799 338.733 38.799 340.654C38.799 342.099 39.989 343.17 41.57 343.17ZM41.723 341.946C40.873 341.946 40.244 341.368 40.244 340.586C40.244 339.753 40.992 339.243 42.063 339.158L44.29 338.988V339.94C44.29 341.045 42.964 341.946 41.876 341.946H41.723ZM49.7188 346.4V341.759C50.1608 342.575 51.2488 343.17 52.4218 343.17C54.5638 343.17 56.2298 341.521 56.2298 338.75C56.2298 335.979 54.6828 334.33 52.5238 334.33C51.3678 334.33 50.1608 334.925 49.7188 335.741V334.5H48.2738V346.4H49.7188ZM52.2178 341.946C50.8068 341.946 49.7188 340.722 49.7188 338.75C49.7188 336.778 50.8068 335.554 52.2178 335.554H52.3368C53.7988 335.554 54.7848 336.778 54.7848 338.75C54.7848 340.722 53.7988 341.946 52.3368 341.946H52.2178ZM59.7794 346.4V341.759C60.2214 342.575 61.3094 343.17 62.4824 343.17C64.6244 343.17 66.2904 341.521 66.2904 338.75C66.2904 335.979 64.7434 334.33 62.5844 334.33C61.4284 334.33 60.2214 334.925 59.7794 335.741V334.5H58.3344V346.4H59.7794ZM62.2784 341.946C60.8674 341.946 59.7794 340.722 59.7794 338.75C59.7794 336.778 60.8674 335.554 62.2784 335.554H62.3974C63.8594 335.554 64.8454 336.778 64.8454 338.75C64.8454 340.722 63.8594 341.946 62.3974 341.946H62.2784ZM76.9207 343V341.725H75.2717C74.7617 341.725 74.5917 341.555 74.5917 341.045V335.741H76.6657V334.5H74.5917V331.746H73.1467V334.5H71.2427V335.741H73.1467V341.249C73.1467 342.405 73.7757 343 74.9317 343H76.9207ZM82.0401 343.17C84.3011 343.17 86.0691 341.385 86.0691 338.75C86.0691 336.115 84.3011 334.33 82.0401 334.33C79.7791 334.33 78.0281 336.115 78.0281 338.75C78.0281 341.385 79.7791 343.17 82.0401 343.17ZM81.9721 341.946C80.5441 341.946 79.4731 340.773 79.4731 338.75C79.4731 336.727 80.5441 335.554 81.9721 335.554H82.1251C83.5531 335.554 84.6241 336.727 84.6241 338.75C84.6241 340.773 83.5531 341.946 82.1251 341.946H81.9721ZM89.6124 343V340.178L90.9554 338.869L93.9134 343H95.6984L91.9924 337.883L95.5284 334.5H93.6074L89.6124 338.41V331.1H88.1674V343H89.6124ZM100.151 343.17C101.902 343.17 103.33 342.218 103.653 340.518H102.208C101.987 341.487 101.205 341.946 100.27 341.946H100.134C98.9778 341.946 97.7368 341.045 97.6688 338.954H103.67V338.104C103.67 335.894 102.293 334.33 100.117 334.33C98.1278 334.33 96.2238 335.775 96.2238 338.733C96.2238 341.691 98.0428 343.17 100.151 343.17ZM97.7368 337.781C98.0258 336.098 99.0968 335.554 100.049 335.554H100.185C101.29 335.554 102.157 336.302 102.225 337.781H97.7368ZM107.26 343V338.41C107.26 336.727 108.28 335.554 109.691 335.554H109.827C111.085 335.554 111.646 336.336 111.646 337.696V343H113.091V337.356C113.091 335.486 111.935 334.33 110.065 334.33C108.688 334.33 107.753 334.942 107.26 335.775V334.5H105.815V343H107.26ZM120.451 343C122.389 343 123.341 342.031 123.341 339.974V331.1H121.811V339.889C121.811 341.028 121.369 341.555 120.281 341.555H118.479V343H120.451ZM136.301 341.47L133.836 331.1H131.762L129.263 341.436L126.832 331.1H125.251L128.158 343H130.283L132.748 332.817L135.213 343H137.338L140.245 331.1H138.664L136.301 341.47ZM146.733 343V332.494H151.017V331.1H140.919V332.494H145.203V343H146.733Z" fill="black"/>
<path d="M277.655 266V265.098H273.002V262.491H276.885V261.589H273.002V259.202H277.545V258.3H272.012V266H277.655ZM279.398 266L280.938 263.932L282.456 266H283.545L281.488 263.195L283.49 260.5H282.423L280.96 262.48L279.497 260.5H278.408L280.41 263.217L278.342 266H279.398ZM286.585 266.11C287.817 266.11 288.664 265.373 288.807 264.207H287.872C287.762 264.845 287.3 265.318 286.64 265.318H286.541C285.441 265.318 284.924 264.35 284.924 263.25C284.924 262.15 285.441 261.182 286.541 261.182H286.64C287.3 261.182 287.762 261.644 287.872 262.293H288.807C288.697 261.116 287.817 260.39 286.585 260.39C284.913 260.39 283.989 261.633 283.989 263.25C283.989 264.867 284.913 266.11 286.585 266.11ZM291.065 266V262.953C291.065 261.831 291.824 261.182 292.627 261.182H292.726C293.54 261.182 293.903 261.688 293.903 262.557V266H294.838V262.337C294.838 261.182 294.145 260.39 292.891 260.39C292 260.39 291.406 260.775 291.065 261.325V258.3H290.13V266H291.065ZM297.942 266.11C298.844 266.11 299.537 265.615 299.757 265.12C299.757 265.252 299.768 265.736 299.812 266H300.692C300.637 265.615 300.637 265.12 300.637 264.79V262.48C300.637 261.358 299.9 260.39 298.448 260.39C297.227 260.39 296.325 261.072 296.259 262.073H297.194C297.26 261.479 297.788 261.182 298.404 261.182H298.481C299.24 261.182 299.702 261.655 299.702 262.48V262.667L298.118 262.799C297.238 262.865 296.149 263.239 296.149 264.482C296.149 265.417 296.919 266.11 297.942 266.11ZM298.041 265.318C297.491 265.318 297.084 264.944 297.084 264.438C297.084 263.899 297.568 263.569 298.261 263.514L299.702 263.404V264.02C299.702 264.735 298.844 265.318 298.14 265.318H298.041ZM303.215 266V263.03C303.215 261.941 303.875 261.182 304.788 261.182H304.876C305.69 261.182 306.053 261.688 306.053 262.568V266H306.988V262.348C306.988 261.138 306.24 260.39 305.03 260.39C304.139 260.39 303.534 260.786 303.215 261.325V260.5H302.28V266H303.215ZM310.718 268.42C312.39 268.42 313.369 267.375 313.369 265.989V260.5H312.434V261.303C312.17 260.808 311.565 260.39 310.718 260.39C309.398 260.39 308.298 261.347 308.298 263.217C308.298 265.087 309.42 266 310.718 266C311.565 266 312.137 265.582 312.434 265.087V265.89C312.434 267.122 311.708 267.628 310.773 267.628H310.663C309.86 267.628 309.244 267.331 309.123 266.737H308.188C308.298 267.716 309.167 268.42 310.718 268.42ZM310.762 265.208C309.904 265.208 309.233 264.592 309.233 263.217C309.233 261.842 309.948 261.182 310.795 261.182H310.894C311.73 261.182 312.434 261.952 312.434 263.217C312.434 264.482 311.686 265.208 310.85 265.208H310.762ZM317.263 266.11C318.396 266.11 319.32 265.494 319.529 264.394H318.594C318.451 265.021 317.945 265.318 317.34 265.318H317.252C316.504 265.318 315.701 264.735 315.657 263.382H319.54V262.832C319.54 261.402 318.649 260.39 317.241 260.39C315.954 260.39 314.722 261.325 314.722 263.239C314.722 265.153 315.899 266.11 317.263 266.11ZM315.701 262.623C315.888 261.534 316.581 261.182 317.197 261.182H317.285C318 261.182 318.561 261.666 318.605 262.623H315.701ZM325.439 266.11C326.693 266.11 327.562 265.472 327.562 264.46C327.562 263.492 326.891 263.074 326.077 262.909L325.208 262.722C324.614 262.601 324.361 262.381 324.361 261.963C324.361 261.545 324.768 261.182 325.428 261.182H325.527C326.253 261.182 326.616 261.655 326.682 262.183H327.617C327.595 261.193 326.891 260.39 325.472 260.39C324.394 260.39 323.426 260.973 323.426 262.062C323.426 262.997 324.13 263.426 324.999 263.602L325.802 263.767C326.418 263.888 326.627 264.141 326.627 264.515C326.627 265.01 326.165 265.318 325.527 265.318H325.428C324.746 265.318 324.207 265.01 324.141 264.317H323.206C323.228 265.351 323.998 266.11 325.439 266.11ZM329.953 259.51V258.388H328.908V259.51H329.953ZM329.898 266V260.5H328.963V266H329.898ZM333.674 268.42C335.346 268.42 336.325 267.375 336.325 265.989V260.5H335.39V261.303C335.126 260.808 334.521 260.39 333.674 260.39C332.354 260.39 331.254 261.347 331.254 263.217C331.254 265.087 332.376 266 333.674 266C334.521 266 335.093 265.582 335.39 265.087V265.89C335.39 267.122 334.664 267.628 333.729 267.628H333.619C332.816 267.628 332.2 267.331 332.079 266.737H331.144C331.254 267.716 332.123 268.42 333.674 268.42ZM333.718 265.208C332.86 265.208 332.189 264.592 332.189 263.217C332.189 261.842 332.904 261.182 333.751 261.182H333.85C334.686 261.182 335.39 261.952 335.39 263.217C335.39 264.482 334.642 265.208 333.806 265.208H333.718ZM338.943 266V263.03C338.943 261.941 339.603 261.182 340.516 261.182H340.604C341.418 261.182 341.781 261.688 341.781 262.568V266H342.716V262.348C342.716 261.138 341.968 260.39 340.758 260.39C339.867 260.39 339.262 260.786 338.943 261.325V260.5H338.008V266H338.943ZM346.568 266.11C347.701 266.11 348.625 265.494 348.834 264.394H347.899C347.756 265.021 347.25 265.318 346.645 265.318H346.557C345.809 265.318 345.006 264.735 344.962 263.382H348.845V262.832C348.845 261.402 347.954 260.39 346.546 260.39C345.259 260.39 344.027 261.325 344.027 263.239C344.027 265.153 345.204 266.11 346.568 266.11ZM345.006 262.623C345.193 261.534 345.886 261.182 346.502 261.182H346.59C347.305 261.182 347.866 261.666 347.91 262.623H345.006ZM352.301 266.11C353.049 266.11 353.83 265.725 354.127 265.197V266H355.062V258.3H354.127V261.303C353.83 260.775 353.126 260.39 352.378 260.39C350.981 260.39 349.903 261.457 349.903 263.25C349.903 265.043 350.904 266.11 352.301 266.11ZM352.422 265.318C351.476 265.318 350.849 264.526 350.849 263.25C350.849 261.974 351.476 261.182 352.422 261.182H352.499C353.423 261.182 354.127 261.974 354.127 263.25C354.127 264.526 353.423 265.318 352.499 265.318H352.422ZM360.913 266.11C361.815 266.11 362.508 265.615 362.728 265.12C362.728 265.252 362.739 265.736 362.783 266H363.663C363.608 265.615 363.608 265.12 363.608 264.79V262.48C363.608 261.358 362.871 260.39 361.419 260.39C360.198 260.39 359.296 261.072 359.23 262.073H360.165C360.231 261.479 360.759 261.182 361.375 261.182H361.452C362.211 261.182 362.673 261.655 362.673 262.48V262.667L361.089 262.799C360.209 262.865 359.12 263.239 359.12 264.482C359.12 265.417 359.89 266.11 360.913 266.11ZM361.012 265.318C360.462 265.318 360.055 264.944 360.055 264.438C360.055 263.899 360.539 263.569 361.232 263.514L362.673 263.404V264.02C362.673 264.735 361.815 265.318 361.111 265.318H361.012ZM366.185 268.2V265.197C366.471 265.725 367.175 266.11 367.934 266.11C369.32 266.11 370.398 265.043 370.398 263.25C370.398 261.457 369.397 260.39 368 260.39C367.252 260.39 366.471 260.775 366.185 261.303V260.5H365.25V268.2H366.185ZM367.802 265.318C366.889 265.318 366.185 264.526 366.185 263.25C366.185 261.974 366.889 261.182 367.802 261.182H367.879C368.825 261.182 369.463 261.974 369.463 263.25C369.463 264.526 368.825 265.318 367.879 265.318H367.802ZM372.695 268.2V265.197C372.981 265.725 373.685 266.11 374.444 266.11C375.83 266.11 376.908 265.043 376.908 263.25C376.908 261.457 375.907 260.39 374.51 260.39C373.762 260.39 372.981 260.775 372.695 261.303V260.5H371.76V268.2H372.695ZM374.312 265.318C373.399 265.318 372.695 264.526 372.695 263.25C372.695 261.974 373.399 261.182 374.312 261.182H374.389C375.335 261.182 375.973 261.974 375.973 263.25C375.973 264.526 375.335 265.318 374.389 265.318H374.312ZM383.787 266V265.175H382.72C382.39 265.175 382.28 265.065 382.28 264.735V261.303H383.622V260.5H382.28V258.718H381.345V260.5H380.113V261.303H381.345V264.867C381.345 265.615 381.752 266 382.5 266H383.787ZM387.099 266.11C388.562 266.11 389.706 264.955 389.706 263.25C389.706 261.545 388.562 260.39 387.099 260.39C385.636 260.39 384.503 261.545 384.503 263.25C384.503 264.955 385.636 266.11 387.099 266.11ZM387.055 265.318C386.131 265.318 385.438 264.559 385.438 263.25C385.438 261.941 386.131 261.182 387.055 261.182H387.154C388.078 261.182 388.771 261.941 388.771 263.25C388.771 264.559 388.078 265.318 387.154 265.318H387.055ZM391.999 266V264.174L392.868 263.327L394.782 266H395.937L393.539 262.689L395.827 260.5H394.584L391.999 263.03V258.3H391.064V266H391.999ZM398.818 266.11C399.951 266.11 400.875 265.494 401.084 264.394H400.149C400.006 265.021 399.5 265.318 398.895 265.318H398.807C398.059 265.318 397.256 264.735 397.212 263.382H401.095V262.832C401.095 261.402 400.204 260.39 398.796 260.39C397.509 260.39 396.277 261.325 396.277 263.239C396.277 265.153 397.454 266.11 398.818 266.11ZM397.256 262.623C397.443 261.534 398.136 261.182 398.752 261.182H398.84C399.555 261.182 400.116 261.666 400.16 262.623H397.256ZM403.418 266V263.03C403.418 261.941 404.078 261.182 404.991 261.182H405.079C405.893 261.182 406.256 261.688 406.256 262.568V266H407.191V262.348C407.191 261.138 406.443 260.39 405.233 260.39C404.342 260.39 403.737 260.786 403.418 261.325V260.5H402.483V266H403.418ZM413.036 266V261.303H414.433V260.5H413.036V259.554C413.036 259.224 413.146 259.114 413.476 259.114H414.708V258.3H413.223C412.464 258.3 412.101 258.652 412.101 259.4V260.5H410.869V261.303H412.101V266H413.036ZM417.607 266.11C419.07 266.11 420.214 264.955 420.214 263.25C420.214 261.545 419.07 260.39 417.607 260.39C416.144 260.39 415.011 261.545 415.011 263.25C415.011 264.955 416.144 266.11 417.607 266.11ZM417.563 265.318C416.639 265.318 415.946 264.559 415.946 263.25C415.946 261.941 416.639 261.182 417.563 261.182H417.662C418.586 261.182 419.279 261.941 419.279 263.25C419.279 264.559 418.586 265.318 417.662 265.318H417.563ZM422.507 266V263.25C422.507 262.062 423.123 261.336 424.135 261.336H424.575V260.445H424.08C423.354 260.445 422.683 260.885 422.452 261.721V260.5H421.572V266H422.507ZM429.544 266.11C430.446 266.11 431.139 265.615 431.359 265.12C431.359 265.252 431.37 265.736 431.414 266H432.294C432.239 265.615 432.239 265.12 432.239 264.79V262.48C432.239 261.358 431.502 260.39 430.05 260.39C428.829 260.39 427.927 261.072 427.861 262.073H428.796C428.862 261.479 429.39 261.182 430.006 261.182H430.083C430.842 261.182 431.304 261.655 431.304 262.48V262.667L429.72 262.799C428.84 262.865 427.751 263.239 427.751 264.482C427.751 265.417 428.521 266.11 429.544 266.11ZM429.643 265.318C429.093 265.318 428.686 264.944 428.686 264.438C428.686 263.899 429.17 263.569 429.863 263.514L431.304 263.404V264.02C431.304 264.735 430.446 265.318 429.742 265.318H429.643ZM436.148 266.11C437.38 266.11 438.227 265.373 438.37 264.207H437.435C437.325 264.845 436.863 265.318 436.203 265.318H436.104C435.004 265.318 434.487 264.35 434.487 263.25C434.487 262.15 435.004 261.182 436.104 261.182H436.203C436.863 261.182 437.325 261.644 437.435 262.293H438.37C438.26 261.116 437.38 260.39 436.148 260.39C434.476 260.39 433.552 261.633 433.552 263.25C433.552 264.867 434.476 266.11 436.148 266.11ZM441.96 266.11C443.192 266.11 444.039 265.373 444.182 264.207H443.247C443.137 264.845 442.675 265.318 442.015 265.318H441.916C440.816 265.318 440.299 264.35 440.299 263.25C440.299 262.15 440.816 261.182 441.916 261.182H442.015C442.675 261.182 443.137 261.644 443.247 262.293H444.182C444.072 261.116 443.192 260.39 441.96 260.39C440.288 260.39 439.364 261.633 439.364 263.25C439.364 264.867 440.288 266.11 441.96 266.11ZM447.716 266.11C448.849 266.11 449.773 265.494 449.982 264.394H449.047C448.904 265.021 448.398 265.318 447.793 265.318H447.705C446.957 265.318 446.154 264.735 446.11 263.382H449.993V262.832C449.993 261.402 449.102 260.39 447.694 260.39C446.407 260.39 445.175 261.325 445.175 263.239C445.175 265.153 446.352 266.11 447.716 266.11ZM446.154 262.623C446.341 261.534 447.034 261.182 447.65 261.182H447.738C448.453 261.182 449.014 261.666 449.058 262.623H446.154ZM453.185 266.11C454.439 266.11 455.308 265.472 455.308 264.46C455.308 263.492 454.637 263.074 453.823 262.909L452.954 262.722C452.36 262.601 452.107 262.381 452.107 261.963C452.107 261.545 452.514 261.182 453.174 261.182H453.273C453.999 261.182 454.362 261.655 454.428 262.183H455.363C455.341 261.193 454.637 260.39 453.218 260.39C452.14 260.39 451.172 260.973 451.172 262.062C451.172 262.997 451.876 263.426 452.745 263.602L453.548 263.767C454.164 263.888 454.373 264.141 454.373 264.515C454.373 265.01 453.911 265.318 453.273 265.318H453.174C452.492 265.318 451.953 265.01 451.887 264.317H450.952C450.974 265.351 451.744 266.11 453.185 266.11ZM458.513 266.11C459.767 266.11 460.636 265.472 460.636 264.46C460.636 263.492 459.965 263.074 459.151 262.909L458.282 262.722C457.688 262.601 457.435 262.381 457.435 261.963C457.435 261.545 457.842 261.182 458.502 261.182H458.601C459.327 261.182 459.69 261.655 459.756 262.183H460.691C460.669 261.193 459.965 260.39 458.546 260.39C457.468 260.39 456.5 260.973 456.5 262.062C456.5 262.997 457.204 263.426 458.073 263.602L458.876 263.767C459.492 263.888 459.701 264.141 459.701 264.515C459.701 265.01 459.239 265.318 458.601 265.318H458.502C457.82 265.318 457.281 265.01 457.215 264.317H456.28C456.302 265.351 457.072 266.11 458.513 266.11ZM467.554 266V265.175H466.487C466.157 265.175 466.047 265.065 466.047 264.735V261.303H467.389V260.5H466.047V258.718H465.112V260.5H463.88V261.303H465.112V264.867C465.112 265.615 465.519 266 466.267 266H467.554ZM470.867 266.11C472.33 266.11 473.474 264.955 473.474 263.25C473.474 261.545 472.33 260.39 470.867 260.39C469.404 260.39 468.271 261.545 468.271 263.25C468.271 264.955 469.404 266.11 470.867 266.11ZM470.823 265.318C469.899 265.318 469.206 264.559 469.206 263.25C469.206 261.941 469.899 261.182 470.823 261.182H470.922C471.846 261.182 472.539 261.941 472.539 263.25C472.539 264.559 471.846 265.318 470.922 265.318H470.823ZM475.766 266V264.174L476.635 263.327L478.549 266H479.704L477.306 262.689L479.594 260.5H478.351L475.766 263.03V258.3H474.831V266H475.766ZM482.585 266.11C483.718 266.11 484.642 265.494 484.851 264.394H483.916C483.773 265.021 483.267 265.318 482.662 265.318H482.574C481.826 265.318 481.023 264.735 480.979 263.382H484.862V262.832C484.862 261.402 483.971 260.39 482.563 260.39C481.276 260.39 480.044 261.325 480.044 263.239C480.044 265.153 481.221 266.11 482.585 266.11ZM481.023 262.623C481.21 261.534 481.903 261.182 482.519 261.182H482.607C483.322 261.182 483.883 261.666 483.927 262.623H481.023ZM487.185 266V263.03C487.185 261.941 487.845 261.182 488.758 261.182H488.846C489.66 261.182 490.023 261.688 490.023 262.568V266H490.958V262.348C490.958 261.138 490.21 260.39 489 260.39C488.109 260.39 487.504 260.786 487.185 261.325V260.5H486.25V266H487.185Z" fill="black"/>
<path d="M666.147 266.11C667.808 266.11 669.084 265.12 669.183 263.602H668.193C668.083 264.526 667.357 265.208 666.202 265.208H666.092C664.442 265.208 663.54 263.844 663.54 262.15C663.54 260.456 664.442 259.092 666.092 259.092H666.202C667.357 259.092 668.083 259.774 668.193 260.698H669.183C669.084 259.18 667.808 258.19 666.147 258.19C663.914 258.19 662.55 259.895 662.55 262.15C662.55 264.405 663.914 266.11 666.147 266.11ZM672.012 266.11C672.914 266.11 673.607 265.615 673.827 265.12C673.827 265.252 673.838 265.736 673.882 266H674.762C674.707 265.615 674.707 265.12 674.707 264.79V262.48C674.707 261.358 673.97 260.39 672.518 260.39C671.297 260.39 670.395 261.072 670.329 262.073H671.264C671.33 261.479 671.858 261.182 672.474 261.182H672.551C673.31 261.182 673.772 261.655 673.772 262.48V262.667L672.188 262.799C671.308 262.865 670.219 263.239 670.219 264.482C670.219 265.417 670.989 266.11 672.012 266.11ZM672.111 265.318C671.561 265.318 671.154 264.944 671.154 264.438C671.154 263.899 671.638 263.569 672.331 263.514L673.772 263.404V264.02C673.772 264.735 672.914 265.318 672.21 265.318H672.111ZM677.285 266V258.3H676.35V266H677.285ZM679.906 266V258.3H678.971V266H679.906ZM687.599 266.11C689.26 266.11 690.536 265.12 690.635 263.602H689.645C689.535 264.526 688.809 265.208 687.654 265.208H687.544C685.894 265.208 684.992 263.844 684.992 262.15C684.992 260.456 685.894 259.092 687.544 259.092H687.654C688.809 259.092 689.535 259.774 689.645 260.698H690.635C690.536 259.18 689.26 258.19 687.599 258.19C685.366 258.19 684.002 259.895 684.002 262.15C684.002 264.405 685.366 266.11 687.599 266.11ZM694.256 266.11C695.719 266.11 696.863 264.955 696.863 263.25C696.863 261.545 695.719 260.39 694.256 260.39C692.793 260.39 691.66 261.545 691.66 263.25C691.66 264.955 692.793 266.11 694.256 266.11ZM694.212 265.318C693.288 265.318 692.595 264.559 692.595 263.25C692.595 261.941 693.288 261.182 694.212 261.182H694.311C695.235 261.182 695.928 261.941 695.928 263.25C695.928 264.559 695.235 265.318 694.311 265.318H694.212ZM699.156 266V263.25C699.156 262.062 699.772 261.336 700.784 261.336H701.224V260.445H700.729C700.003 260.445 699.332 260.885 699.101 261.721V260.5H698.221V266H699.156ZM704.178 266.11C704.926 266.11 705.707 265.725 706.004 265.197V266H706.939V258.3H706.004V261.303C705.707 260.775 705.003 260.39 704.255 260.39C702.858 260.39 701.78 261.457 701.78 263.25C701.78 265.043 702.781 266.11 704.178 266.11ZM704.299 265.318C703.353 265.318 702.726 264.526 702.726 263.25C702.726 261.974 703.353 261.182 704.299 261.182H704.376C705.3 261.182 706.004 261.974 706.004 263.25C706.004 264.526 705.3 265.318 704.376 265.318H704.299ZM717.702 266L714.633 258.3H713.379L710.288 266H711.3L712.103 263.976H715.865L716.668 266H717.702ZM713.984 259.213L715.513 263.074H712.455L713.984 259.213ZM719.797 266V262.92H721.997C723.394 262.92 724.461 262.095 724.461 260.61C724.461 259.125 723.394 258.3 721.997 258.3H718.807V266H719.797ZM719.797 259.202H721.832C722.855 259.202 723.471 259.675 723.471 260.61C723.471 261.545 722.855 262.018 721.832 262.018H719.797V259.202ZM726.844 266V258.3H725.854V266H726.844ZM730.522 266.11C731.776 266.11 732.645 265.472 732.645 264.46C732.645 263.492 731.974 263.074 731.16 262.909L730.291 262.722C729.697 262.601 729.444 262.381 729.444 261.963C729.444 261.545 729.851 261.182 730.511 261.182H730.61C731.336 261.182 731.699 261.655 731.765 262.183H732.7C732.678 261.193 731.974 260.39 730.555 260.39C729.477 260.39 728.509 260.973 728.509 262.062C728.509 262.997 729.213 263.426 730.082 263.602L730.885 263.767C731.501 263.888 731.71 264.141 731.71 264.515C731.71 265.01 731.248 265.318 730.61 265.318H730.511C729.829 265.318 729.29 265.01 729.224 264.317H728.289C728.311 265.351 729.081 266.11 730.522 266.11ZM739.563 266V265.175H738.496C738.166 265.175 738.056 265.065 738.056 264.735V261.303H739.398V260.5H738.056V258.718H737.121V260.5H735.889V261.303H737.121V264.867C737.121 265.615 737.528 266 738.276 266H739.563ZM742.875 266.11C744.338 266.11 745.482 264.955 745.482 263.25C745.482 261.545 744.338 260.39 742.875 260.39C741.412 260.39 740.279 261.545 740.279 263.25C740.279 264.955 741.412 266.11 742.875 266.11ZM742.831 265.318C741.907 265.318 741.214 264.559 741.214 263.25C741.214 261.941 741.907 261.182 742.831 261.182H742.93C743.854 261.182 744.547 261.941 744.547 263.25C744.547 264.559 743.854 265.318 742.93 265.318H742.831ZM751.351 266.11C752.605 266.11 753.474 265.472 753.474 264.46C753.474 263.492 752.803 263.074 751.989 262.909L751.12 262.722C750.526 262.601 750.273 262.381 750.273 261.963C750.273 261.545 750.68 261.182 751.34 261.182H751.439C752.165 261.182 752.528 261.655 752.594 262.183H753.529C753.507 261.193 752.803 260.39 751.384 260.39C750.306 260.39 749.338 260.973 749.338 262.062C749.338 262.997 750.042 263.426 750.911 263.602L751.714 263.767C752.33 263.888 752.539 264.141 752.539 264.515C752.539 265.01 752.077 265.318 751.439 265.318H751.34C750.658 265.318 750.119 265.01 750.053 264.317H749.118C749.14 265.351 749.91 266.11 751.351 266.11ZM758.662 260.5L756.924 264.68L755.153 260.5H754.152L756.473 265.89V266.693C756.473 267.023 756.363 267.133 756.033 267.133H754.482V267.958H756.253C757.001 267.958 757.364 267.606 757.364 266.869V265.857L759.63 260.5H758.662ZM761.547 266V263.03C761.547 261.941 762.207 261.182 763.12 261.182H763.208C764.022 261.182 764.385 261.688 764.385 262.568V266H765.32V262.348C765.32 261.138 764.572 260.39 763.362 260.39C762.471 260.39 761.866 260.786 761.547 261.325V260.5H760.612V266H761.547ZM769.226 266.11C770.458 266.11 771.305 265.373 771.448 264.207H770.513C770.403 264.845 769.941 265.318 769.281 265.318H769.182C768.082 265.318 767.565 264.35 767.565 263.25C767.565 262.15 768.082 261.182 769.182 261.182H769.281C769.941 261.182 770.403 261.644 770.513 262.293H771.448C771.338 261.116 770.458 260.39 769.226 260.39C767.554 260.39 766.63 261.633 766.63 263.25C766.63 264.867 767.554 266.11 769.226 266.11ZM773.707 266V262.953C773.707 261.831 774.466 261.182 775.269 261.182H775.368C776.182 261.182 776.545 261.688 776.545 262.557V266H777.48V262.337C777.48 261.182 776.787 260.39 775.533 260.39C774.642 260.39 774.048 260.775 773.707 261.325V258.3H772.772V266H773.707ZM780.055 266V263.25C780.055 262.062 780.671 261.336 781.683 261.336H782.123V260.445H781.628C780.902 260.445 780.231 260.885 780 261.721V260.5H779.12V266H780.055ZM785.243 266.11C786.706 266.11 787.85 264.955 787.85 263.25C787.85 261.545 786.706 260.39 785.243 260.39C783.78 260.39 782.647 261.545 782.647 263.25C782.647 264.955 783.78 266.11 785.243 266.11ZM785.199 265.318C784.275 265.318 783.582 264.559 783.582 263.25C783.582 261.941 784.275 261.182 785.199 261.182H785.298C786.222 261.182 786.915 261.941 786.915 263.25C786.915 264.559 786.222 265.318 785.298 265.318H785.199ZM790.142 266V263.03C790.142 261.941 790.802 261.182 791.715 261.182H791.803C792.617 261.182 792.98 261.688 792.98 262.568V266H793.915V262.348C793.915 261.138 793.167 260.39 791.957 260.39C791.066 260.39 790.461 260.786 790.142 261.325V260.5H789.207V266H790.142ZM796.546 259.51V258.388H795.501V259.51H796.546ZM796.491 266V260.5H795.556V266H796.491ZM799.981 266.11C801.235 266.11 802.104 265.472 802.104 264.46C802.104 263.492 801.433 263.074 800.619 262.909L799.75 262.722C799.156 262.601 798.903 262.381 798.903 261.963C798.903 261.545 799.31 261.182 799.97 261.182H800.069C800.795 261.182 801.158 261.655 801.224 262.183H802.159C802.137 261.193 801.433 260.39 800.014 260.39C798.936 260.39 797.968 260.973 797.968 262.062C797.968 262.997 798.672 263.426 799.541 263.602L800.344 263.767C800.96 263.888 801.169 264.141 801.169 264.515C801.169 265.01 800.707 265.318 800.069 265.318H799.97C799.288 265.318 798.749 265.01 798.683 264.317H797.748C797.77 265.351 798.54 266.11 799.981 266.11ZM805.716 266.11C806.849 266.11 807.773 265.494 807.982 264.394H807.047C806.904 265.021 806.398 265.318 805.793 265.318H805.705C804.957 265.318 804.154 264.735 804.11 263.382H807.993V262.832C807.993 261.402 807.102 260.39 805.694 260.39C804.407 260.39 803.175 261.325 803.175 263.239C803.175 265.153 804.352 266.11 805.716 266.11ZM804.154 262.623C804.341 261.534 805.034 261.182 805.65 261.182H805.738C806.453 261.182 807.014 261.666 807.058 262.623H804.154ZM813.078 259.51V258.388H812.033V259.51H813.078ZM813.023 266V260.5H812.088V266H813.023ZM816.777 266.11C817.525 266.11 818.306 265.725 818.603 265.197V266H819.538V258.3H818.603V261.303C818.306 260.775 817.602 260.39 816.854 260.39C815.457 260.39 814.379 261.457 814.379 263.25C814.379 265.043 815.38 266.11 816.777 266.11ZM816.898 265.318C815.952 265.318 815.325 264.526 815.325 263.25C815.325 261.974 815.952 261.182 816.898 261.182H816.975C817.899 261.182 818.603 261.974 818.603 263.25C818.603 264.526 817.899 265.318 816.975 265.318H816.898ZM823.43 266.11C824.563 266.11 825.487 265.494 825.696 264.394H824.761C824.618 265.021 824.112 265.318 823.507 265.318H823.419C822.671 265.318 821.868 264.735 821.824 263.382H825.707V262.832C825.707 261.402 824.816 260.39 823.408 260.39C822.121 260.39 820.889 261.325 820.889 263.239C820.889 265.153 822.066 266.11 823.43 266.11ZM821.868 262.623C822.055 261.534 822.748 261.182 823.364 261.182H823.452C824.167 261.182 824.728 261.666 824.772 262.623H821.868ZM828.03 266V263.03C828.03 261.941 828.69 261.182 829.603 261.182H829.691C830.505 261.182 830.868 261.688 830.868 262.568V266H831.803V262.348C831.803 261.138 831.055 260.39 829.845 260.39C828.954 260.39 828.349 260.786 828.03 261.325V260.5H827.095V266H828.03ZM836.393 266V265.175H835.326C834.996 265.175 834.886 265.065 834.886 264.735V261.303H836.228V260.5H834.886V258.718H833.951V260.5H832.719V261.303H833.951V264.867C833.951 265.615 834.358 266 835.106 266H836.393ZM838.505 259.51V258.388H837.46V259.51H838.505ZM838.45 266V260.5H837.515V266H838.45ZM843.139 266V265.175H842.072C841.742 265.175 841.632 265.065 841.632 264.735V261.303H842.974V260.5H841.632V258.718H840.697V260.5H839.465V261.303H840.697V264.867C840.697 265.615 841.104 266 841.852 266H843.139ZM845.251 259.51V258.388H844.206V259.51H845.251ZM845.196 266V260.5H844.261V266H845.196ZM849.093 266.11C850.226 266.11 851.15 265.494 851.359 264.394H850.424C850.281 265.021 849.775 265.318 849.17 265.318H849.082C848.334 265.318 847.531 264.735 847.487 263.382H851.37V262.832C851.37 261.402 850.479 260.39 849.071 260.39C847.784 260.39 846.552 261.325 846.552 263.239C846.552 265.153 847.729 266.11 849.093 266.11ZM847.531 262.623C847.718 261.534 848.411 261.182 849.027 261.182H849.115C849.83 261.182 850.391 261.666 850.435 262.623H847.531ZM854.562 266.11C855.816 266.11 856.685 265.472 856.685 264.46C856.685 263.492 856.014 263.074 855.2 262.909L854.331 262.722C853.737 262.601 853.484 262.381 853.484 261.963C853.484 261.545 853.891 261.182 854.551 261.182H854.65C855.376 261.182 855.739 261.655 855.805 262.183H856.74C856.718 261.193 856.014 260.39 854.595 260.39C853.517 260.39 852.549 260.973 852.549 262.062C852.549 262.997 853.253 263.426 854.122 263.602L854.925 263.767C855.541 263.888 855.75 264.141 855.75 264.515C855.75 265.01 855.288 265.318 854.65 265.318H854.551C853.869 265.318 853.33 265.01 853.264 264.317H852.329C852.351 265.351 853.121 266.11 854.562 266.11ZM863.048 266.11C864.511 266.11 865.655 264.955 865.655 263.25C865.655 261.545 864.511 260.39 863.048 260.39C861.585 260.39 860.452 261.545 860.452 263.25C860.452 264.955 861.585 266.11 863.048 266.11ZM863.004 265.318C862.08 265.318 861.387 264.559 861.387 263.25C861.387 261.941 862.08 261.182 863.004 261.182H863.103C864.027 261.182 864.72 261.941 864.72 263.25C864.72 264.559 864.027 265.318 863.103 265.318H863.004ZM868.446 266V261.303H869.843V260.5H868.446V259.554C868.446 259.224 868.556 259.114 868.886 259.114H870.118V258.3H868.633C867.874 258.3 867.511 258.652 867.511 259.4V260.5H866.279V261.303H867.511V266H868.446ZM875.252 266.11C876.187 266.11 876.803 265.604 877.034 264.955V266H877.969V260.5H877.034V263.47C877.034 264.625 876.319 265.318 875.582 265.318H875.483C874.691 265.318 874.306 264.845 874.306 263.91V260.5H873.371V264.13C873.371 265.285 874.02 266.11 875.252 266.11ZM881.471 266.11C882.725 266.11 883.594 265.472 883.594 264.46C883.594 263.492 882.923 263.074 882.109 262.909L881.24 262.722C880.646 262.601 880.393 262.381 880.393 261.963C880.393 261.545 880.8 261.182 881.46 261.182H881.559C882.285 261.182 882.648 261.655 882.714 262.183H883.649C883.627 261.193 882.923 260.39 881.504 260.39C880.426 260.39 879.458 260.973 879.458 262.062C879.458 262.997 880.162 263.426 881.031 263.602L881.834 263.767C882.45 263.888 882.659 264.141 882.659 264.515C882.659 265.01 882.197 265.318 881.559 265.318H881.46C880.778 265.318 880.239 265.01 880.173 264.317H879.238C879.26 265.351 880.03 266.11 881.471 266.11ZM887.206 266.11C888.339 266.11 889.263 265.494 889.472 264.394H888.537C888.394 265.021 887.888 265.318 887.283 265.318H887.195C886.447 265.318 885.644 264.735 885.6 263.382H889.483V262.832C889.483 261.402 888.592 260.39 887.184 260.39C885.897 260.39 884.665 261.325 884.665 263.239C884.665 265.153 885.842 266.11 887.206 266.11ZM885.644 262.623C885.831 261.534 886.524 261.182 887.14 261.182H887.228C887.943 261.182 888.504 261.666 888.548 262.623H885.644ZM891.806 266V263.25C891.806 262.062 892.422 261.336 893.434 261.336H893.874V260.445H893.379C892.653 260.445 891.982 260.885 891.751 261.721V260.5H890.871V266H891.806ZM896.672 266.11C897.926 266.11 898.795 265.472 898.795 264.46C898.795 263.492 898.124 263.074 897.31 262.909L896.441 262.722C895.847 262.601 895.594 262.381 895.594 261.963C895.594 261.545 896.001 261.182 896.661 261.182H896.76C897.486 261.182 897.849 261.655 897.915 262.183H898.85C898.828 261.193 898.124 260.39 896.705 260.39C895.627 260.39 894.659 260.973 894.659 262.062C894.659 262.997 895.363 263.426 896.232 263.602L897.035 263.767C897.651 263.888 897.86 264.141 897.86 264.515C897.86 265.01 897.398 265.318 896.76 265.318H896.661C895.979 265.318 895.44 265.01 895.374 264.317H894.439C894.461 265.351 895.231 266.11 896.672 266.11ZM904.366 266.11C905.268 266.11 905.961 265.615 906.181 265.12C906.181 265.252 906.192 265.736 906.236 266H907.116C907.061 265.615 907.061 265.12 907.061 264.79V262.48C907.061 261.358 906.324 260.39 904.872 260.39C903.651 260.39 902.749 261.072 902.683 262.073H903.618C903.684 261.479 904.212 261.182 904.828 261.182H904.905C905.664 261.182 906.126 261.655 906.126 262.48V262.667L904.542 262.799C903.662 262.865 902.573 263.239 902.573 264.482C902.573 265.417 903.343 266.11 904.366 266.11ZM904.465 265.318C903.915 265.318 903.508 264.944 903.508 264.438C903.508 263.899 903.992 263.569 904.685 263.514L906.126 263.404V264.02C906.126 264.735 905.268 265.318 904.564 265.318H904.465ZM909.638 266V263.03C909.638 261.941 910.298 261.182 911.211 261.182H911.299C912.113 261.182 912.476 261.688 912.476 262.568V266H913.411V262.348C913.411 261.138 912.663 260.39 911.453 260.39C910.562 260.39 909.957 260.786 909.638 261.325V260.5H908.703V266H909.638ZM917.12 266.11C917.868 266.11 918.649 265.725 918.946 265.197V266H919.881V258.3H918.946V261.303C918.649 260.775 917.945 260.39 917.197 260.39C915.8 260.39 914.722 261.457 914.722 263.25C914.722 265.043 915.723 266.11 917.12 266.11ZM917.241 265.318C916.295 265.318 915.668 264.526 915.668 263.25C915.668 261.974 916.295 261.182 917.241 261.182H917.318C918.242 261.182 918.946 261.974 918.946 263.25C918.946 264.526 918.242 265.318 917.318 265.318H917.241ZM927.079 266V265.175H926.012C925.682 265.175 925.572 265.065 925.572 264.735V261.303H926.914V260.5H925.572V258.718H924.637V260.5H923.405V261.303H924.637V264.867C924.637 265.615 925.044 266 925.792 266H927.079ZM930.347 266.11C931.48 266.11 932.404 265.494 932.613 264.394H931.678C931.535 265.021 931.029 265.318 930.424 265.318H930.336C929.588 265.318 928.785 264.735 928.741 263.382H932.624V262.832C932.624 261.402 931.733 260.39 930.325 260.39C929.038 260.39 927.806 261.325 927.806 263.239C927.806 265.153 928.983 266.11 930.347 266.11ZM928.785 262.623C928.972 261.534 929.665 261.182 930.281 261.182H930.369C931.084 261.182 931.645 261.666 931.689 262.623H928.785ZM935.475 266.11C936.377 266.11 937.07 265.615 937.29 265.12C937.29 265.252 937.301 265.736 937.345 266H938.225C938.17 265.615 938.17 265.12 938.17 264.79V262.48C938.17 261.358 937.433 260.39 935.981 260.39C934.76 260.39 933.858 261.072 933.792 262.073H934.727C934.793 261.479 935.321 261.182 935.937 261.182H936.014C936.773 261.182 937.235 261.655 937.235 262.48V262.667L935.651 262.799C934.771 262.865 933.682 263.239 933.682 264.482C933.682 265.417 934.452 266.11 935.475 266.11ZM935.574 265.318C935.024 265.318 934.617 264.944 934.617 264.438C934.617 263.899 935.101 263.569 935.794 263.514L937.235 263.404V264.02C937.235 264.735 936.377 265.318 935.673 265.318H935.574ZM940.748 266V263.03C940.748 261.941 941.397 261.182 942.211 261.182H942.299C943.102 261.182 943.454 261.688 943.454 262.568V266H944.389V263.03C944.389 261.941 945.049 261.182 945.863 261.182H945.94C946.743 261.182 947.106 261.688 947.106 262.568V266H948.041V262.348C948.041 261.138 947.293 260.39 946.094 260.39C945.357 260.39 944.653 260.698 944.235 261.457C943.905 260.731 943.245 260.39 942.453 260.39C941.65 260.39 941.078 260.786 940.748 261.303V260.5H939.813V266H940.748ZM951.489 266.11C952.743 266.11 953.612 265.472 953.612 264.46C953.612 263.492 952.941 263.074 952.127 262.909L951.258 262.722C950.664 262.601 950.411 262.381 950.411 261.963C950.411 261.545 950.818 261.182 951.478 261.182H951.577C952.303 261.182 952.666 261.655 952.732 262.183H953.667C953.645 261.193 952.941 260.39 951.522 260.39C950.444 260.39 949.476 260.973 949.476 262.062C949.476 262.997 950.18 263.426 951.049 263.602L951.852 263.767C952.468 263.888 952.677 264.141 952.677 264.515C952.677 265.01 952.215 265.318 951.577 265.318H951.478C950.796 265.318 950.257 265.01 950.191 264.317H949.256C949.278 265.351 950.048 266.11 951.489 266.11Z" fill="black"/>
<path d="M267.05 316H268.55V311.8H271.025C273.02 311.8 274.4 310.675 274.4 308.65C274.4 306.625 273.02 305.5 271.025 305.5H267.05V316ZM268.55 310.45V306.85H270.8C272.15 306.85 272.9 307.45 272.9 308.65C272.9 309.925 272.15 310.45 270.8 310.45H268.55ZM279.494 305.35C276.944 305.35 275.594 307.375 275.594 310.75C275.594 314.125 276.944 316.15 279.494 316.15C282.044 316.15 283.394 314.125 283.394 310.75C283.394 307.375 282.044 305.35 279.494 305.35ZM279.419 314.8C277.919 314.8 277.094 313.3 277.094 310.75C277.094 308.2 277.919 306.7 279.419 306.7H279.569C281.069 306.7 281.894 308.2 281.894 310.75C281.894 313.3 281.069 314.8 279.569 314.8H279.419ZM290.738 308.65H292.238C292.163 306.625 290.963 305.35 288.638 305.35C286.538 305.35 285.188 306.475 285.188 308.275C285.188 309.925 285.998 310.795 287.513 311.2L288.638 311.5C290.153 311.905 290.588 312.325 290.588 313.3C290.588 314.2 289.988 314.8 288.713 314.8H288.563C286.988 314.8 286.163 314.05 286.163 312.625H284.663C284.738 314.875 286.013 316.15 288.563 316.15C291.038 316.15 292.088 314.95 292.088 313.225C292.088 311.575 291.203 310.675 289.538 310.225L287.888 309.775C287.048 309.55 286.688 309.1 286.688 308.275C286.688 307.375 287.288 306.7 288.563 306.7H288.713C289.988 306.7 290.663 307.45 290.738 308.65ZM296.732 316H298.232V306.85H301.532V305.5H293.432V306.85H296.732V316ZM312.246 316H313.671V311.95C313.671 310.45 314.646 309.55 315.621 309.55H315.771C316.746 309.55 317.346 310.225 317.346 311.35V316H318.771V311.2C318.771 309.55 317.946 308.35 316.221 308.35C314.871 308.35 313.971 309.1 313.671 309.925V305.5H312.246V316ZM324.72 316H327.72V314.755H325.17C324.72 314.755 324.57 314.605 324.57 314.155V309.73H327.195V308.5H324.57V306.07H323.145V308.5H321.045V309.73H323.145V314.425C323.145 315.475 323.67 316 324.72 316ZM333.714 316H336.714V314.755H334.164C333.714 314.755 333.564 314.605 333.564 314.155V309.73H336.189V308.5H333.564V306.07H332.139V308.5H330.039V309.73H332.139V314.425C332.139 315.475 332.664 316 333.714 316ZM342.618 309.55H342.693C343.818 309.55 344.628 310.45 344.628 312.25C344.628 314.05 343.818 314.95 342.693 314.95H342.618C341.493 314.95 340.653 313.975 340.653 312.25C340.653 310.525 341.493 309.55 342.618 309.55ZM342.993 308.35C342.018 308.35 341.103 308.8 340.578 309.7V308.5H339.228V319H340.653V314.875C341.103 315.7 341.943 316.15 342.918 316.15C344.943 316.15 346.053 314.65 346.053 312.25C346.053 309.85 344.943 308.35 342.993 308.35ZM351.492 316.15C353.217 316.15 354.492 315.25 354.492 313.9C354.492 312.55 353.442 311.95 352.317 311.725L351.192 311.5C350.442 311.35 350.067 310.975 350.067 310.525C350.067 310 350.667 309.55 351.492 309.55H351.642C352.542 309.55 353.142 310.15 353.217 310.825H354.642C354.567 309.55 353.517 308.35 351.567 308.35C349.692 308.35 348.642 309.4 348.642 310.6C348.642 311.875 349.767 312.625 351.117 312.85L351.942 313C352.692 313.15 353.067 313.45 353.067 313.975C353.067 314.575 352.392 314.95 351.642 314.95H351.492C350.592 314.95 349.767 314.5 349.692 313.675H348.267C348.342 315.055 349.467 316.15 351.492 316.15ZM359.541 310.3H361.341V308.5H359.541V310.3ZM359.541 316H361.341V314.2H359.541V316ZM366.661 316H368.161L372.211 305.5H370.711L366.661 316ZM375.655 316H377.155L381.205 305.5H379.705L375.655 316ZM386.899 314.95C386.209 314.95 385.699 314.485 385.699 313.87C385.699 313.18 386.329 312.76 387.199 312.685L389.074 312.535V313.3C389.074 314.2 387.949 314.95 387.049 314.95H386.899ZM386.749 316.15C387.949 316.15 388.849 315.475 389.149 314.8C389.149 314.875 389.149 315.625 389.224 316H390.574C390.499 315.475 390.499 314.8 390.499 314.35V311.2C390.499 309.67 389.449 308.35 387.454 308.35C385.759 308.35 384.514 309.295 384.424 310.675H385.849C385.939 309.925 386.614 309.55 387.424 309.55H387.499C388.474 309.55 389.074 310.15 389.074 311.2V311.44L387.004 311.605C385.789 311.71 384.274 312.22 384.274 313.93C384.274 315.205 385.324 316.15 386.749 316.15ZM396.583 309.55H396.658C397.783 309.55 398.593 310.45 398.593 312.25C398.593 314.05 397.783 314.95 396.658 314.95H396.583C395.458 314.95 394.618 313.975 394.618 312.25C394.618 310.525 395.458 309.55 396.583 309.55ZM396.958 308.35C395.983 308.35 395.068 308.8 394.543 309.7V308.5H393.193V319H394.618V314.875C395.068 315.7 395.908 316.15 396.883 316.15C398.908 316.15 400.018 314.65 400.018 312.25C400.018 309.85 398.908 308.35 396.958 308.35ZM406.207 307.15V305.5H404.632V307.15H406.207ZM408.847 316V314.77H406.132V308.5H402.457V309.73H404.707V314.77H401.992V316H408.847ZM413.506 316H415.306V314.2H413.506V316ZM423.43 316.15C425.305 316.15 426.7 315.1 426.85 313.6H425.425C425.275 314.35 424.555 314.95 423.505 314.95H423.355C422.305 314.95 421.225 314.2 421.225 312.25C421.225 310.6 422.23 309.55 423.43 309.55H423.58C424.405 309.55 425.2 310.075 425.35 310.975H426.775C426.625 309.4 425.155 308.35 423.58 308.35C421.405 308.35 419.8 309.925 419.8 312.25C419.8 314.575 421.255 316.15 423.43 316.15ZM432.395 316.15C434.495 316.15 435.995 314.65 435.995 312.25C435.995 309.925 434.42 308.35 432.395 308.35C430.37 308.35 428.795 309.925 428.795 312.25C428.795 314.65 430.295 316.15 432.395 316.15ZM432.47 314.95H432.32C431.12 314.95 430.22 313.975 430.22 312.25C430.22 310.525 431.12 309.55 432.32 309.55H432.47C433.67 309.55 434.57 310.525 434.57 312.25C434.57 313.975 433.67 314.95 432.47 314.95ZM440.759 316V312.25C440.759 310.75 441.584 309.85 442.934 309.85H444.509V308.425H442.934C441.959 308.425 440.984 309.025 440.684 310.15V308.5H439.334V316H440.759ZM450.218 314.95H450.143C449.018 314.95 448.208 314.05 448.208 312.25C448.208 310.45 449.018 309.55 450.143 309.55H450.218C451.343 309.55 452.183 310.525 452.183 312.25C452.183 313.975 451.343 314.95 450.218 314.95ZM449.843 316.15C450.818 316.15 451.733 315.7 452.258 314.8V316H453.608V305.5H452.183V309.625C451.733 308.8 450.893 308.35 449.918 308.35C447.893 308.35 446.783 309.85 446.783 312.25C446.783 314.65 447.893 316.15 449.843 316.15ZM458.477 316H460.277V314.2H458.477V316ZM468.401 316.15C470.276 316.15 471.671 315.1 471.821 313.6H470.396C470.246 314.35 469.526 314.95 468.476 314.95H468.326C467.276 314.95 466.196 314.2 466.196 312.25C466.196 310.6 467.201 309.55 468.401 309.55H468.551C469.376 309.55 470.171 310.075 470.321 310.975H471.746C471.596 309.4 470.126 308.35 468.551 308.35C466.376 308.35 464.771 309.925 464.771 312.25C464.771 314.575 466.226 316.15 468.401 316.15ZM477.365 316.15C479.465 316.15 480.965 314.65 480.965 312.25C480.965 309.925 479.39 308.35 477.365 308.35C475.34 308.35 473.765 309.925 473.765 312.25C473.765 314.65 475.265 316.15 477.365 316.15ZM477.44 314.95H477.29C476.09 314.95 475.19 313.975 475.19 312.25C475.19 310.525 476.09 309.55 477.29 309.55H477.44C478.64 309.55 479.54 310.525 479.54 312.25C479.54 313.975 478.64 314.95 477.44 314.95ZM482.639 316H484.064V311.65C484.064 310.15 484.334 309.55 485.009 309.55H485.039C485.699 309.55 485.789 310.225 485.789 311.35V316H487.214V311.65C487.214 310.15 487.559 309.55 488.159 309.55H488.189C489.014 309.55 488.939 310.225 488.939 311.35V316H490.364V311.2C490.364 309.55 490.229 308.35 488.654 308.35C487.679 308.35 487.349 308.875 487.049 309.61C486.839 308.815 486.374 308.35 485.564 308.35C484.784 308.35 484.364 308.8 484.064 309.61V308.5H482.639V316ZM492.579 316H494.079L498.129 305.5H496.629L492.579 316ZM505.218 316L507.993 308.5H506.493L504.363 314.5L502.218 308.5H500.718L503.493 316H505.218ZM517.317 316V314.74H514.317V305.5H513.192L510.492 308.125V309.85L512.892 307.525V314.74H509.667V316H517.317ZM519.561 316H521.061L525.111 305.5H523.611L519.561 316ZM530.805 314.95C530.115 314.95 529.605 314.485 529.605 313.87C529.605 313.18 530.235 312.76 531.105 312.685L532.98 312.535V313.3C532.98 314.2 531.855 314.95 530.955 314.95H530.805ZM530.655 316.15C531.855 316.15 532.755 315.475 533.055 314.8C533.055 314.875 533.055 315.625 533.13 316H534.48C534.405 315.475 534.405 314.8 534.405 314.35V311.2C534.405 309.67 533.355 308.35 531.36 308.35C529.665 308.35 528.42 309.295 528.33 310.675H529.755C529.845 309.925 530.52 309.55 531.33 309.55H531.405C532.38 309.55 532.98 310.15 532.98 311.2V311.44L530.91 311.605C529.695 311.71 528.18 312.22 528.18 313.93C528.18 315.205 529.23 316.15 530.655 316.15ZM543.399 308.5H541.974V312.55C541.974 314.05 541.044 314.95 540.099 314.95H539.949C538.944 314.95 538.449 314.35 538.449 313.15V308.5H537.024V313.45C537.024 315.025 537.894 316.15 539.574 316.15C540.879 316.15 541.689 315.4 541.974 314.575V316H543.399V308.5ZM549.573 316H552.573V314.755H550.023C549.573 314.755 549.423 314.605 549.423 314.155V309.73H552.048V308.5H549.423V306.07H547.998V308.5H545.898V309.73H547.998V314.425C547.998 315.475 548.523 316 549.573 316ZM555.088 316H556.513V311.95C556.513 310.45 557.488 309.55 558.463 309.55H558.613C559.588 309.55 560.188 310.225 560.188 311.35V316H561.613V311.2C561.613 309.55 560.788 308.35 559.063 308.35C557.713 308.35 556.813 309.1 556.513 309.925V305.5H555.088V316ZM567.307 316.15C569.407 316.15 570.907 314.65 570.907 312.25C570.907 309.925 569.332 308.35 567.307 308.35C565.282 308.35 563.707 309.925 563.707 312.25C563.707 314.65 565.207 316.15 567.307 316.15ZM567.382 314.95H567.232C566.032 314.95 565.132 313.975 565.132 312.25C565.132 310.525 566.032 309.55 567.232 309.55H567.382C568.582 309.55 569.482 310.525 569.482 312.25C569.482 313.975 568.582 314.95 567.382 314.95ZM575.671 316V312.25C575.671 310.75 576.496 309.85 577.846 309.85H579.421V308.425H577.846C576.871 308.425 575.896 309.025 575.596 310.15V308.5H574.246V316H575.671ZM586.09 307.15V305.5H584.515V307.15H586.09ZM588.73 316V314.77H586.015V308.5H582.34V309.73H584.59V314.77H581.875V316H588.73ZM594.334 316.15C596.059 316.15 597.334 315.25 597.334 313.9C597.334 312.55 596.284 311.95 595.159 311.725L594.034 311.5C593.284 311.35 592.909 310.975 592.909 310.525C592.909 310 593.509 309.55 594.334 309.55H594.484C595.384 309.55 595.984 310.15 596.059 310.825H597.484C597.409 309.55 596.359 308.35 594.409 308.35C592.534 308.35 591.484 309.4 591.484 310.6C591.484 311.875 592.609 312.625 593.959 312.85L594.784 313C595.534 313.15 595.909 313.45 595.909 313.975C595.909 314.575 595.234 314.95 594.484 314.95H594.334C593.434 314.95 592.609 314.5 592.534 313.675H591.109C591.184 315.055 592.309 316.15 594.334 316.15ZM603.328 309.55H603.478C604.498 309.55 605.143 310.3 605.143 311.275H601.438C601.723 310 602.563 309.55 603.328 309.55ZM606.568 313.78H605.143C604.993 314.575 604.318 314.95 603.523 314.95C602.503 314.95 601.423 314.2 601.333 312.475H606.583V311.725C606.583 309.805 605.323 308.35 603.403 308.35C601.618 308.35 599.908 309.64 599.908 312.235C599.908 314.86 601.603 316.15 603.478 316.15C605.023 316.15 606.328 315.325 606.568 313.78Z" fill="black"/>
<path d="M259.01 270V268.74H253.535L257.075 265.605C258.08 264.735 258.785 263.76 258.785 262.335C258.785 260.685 257.63 259.35 255.455 259.35C253.46 259.35 252.095 260.595 251.9 262.47H253.325C253.505 261.195 254.3 260.55 255.35 260.55H255.5C256.55 260.55 257.36 261.315 257.36 262.47C257.36 263.7 256.415 264.42 255.53 265.275L251.96 268.5V270H259.01Z" fill="black"/>
<path d="M648.5 270.15C650.6 270.15 652.175 269.025 652.175 267.225C652.175 265.905 651.455 265.005 650.33 264.69C651.38 264.3 652.1 263.445 652.1 262.275C652.1 260.43 650.525 259.35 648.575 259.35C646.775 259.35 645.155 260.43 645.05 262.2H646.475C646.55 261.255 647.375 260.55 648.5 260.55H648.65C649.775 260.55 650.675 261.225 650.675 262.35C650.675 263.34 649.925 264.135 648.8 264.135H647.9V265.335H648.8C649.925 265.335 650.75 265.995 650.75 267.15C650.75 268.245 649.775 268.95 648.575 268.95H648.425C647.18 268.95 646.49 268.365 646.325 267.3H644.9C645.005 268.605 646.01 270.15 648.5 270.15Z" fill="black"/>
<path d="M662.05 316H663.55V311.8H666.025C668.02 311.8 669.4 310.675 669.4 308.65C669.4 306.625 668.02 305.5 666.025 305.5H662.05V316ZM663.55 310.45V306.85H665.8C667.15 306.85 667.9 307.45 667.9 308.65C667.9 309.925 667.15 310.45 665.8 310.45H663.55ZM674.494 305.35C671.944 305.35 670.594 307.375 670.594 310.75C670.594 314.125 671.944 316.15 674.494 316.15C677.044 316.15 678.394 314.125 678.394 310.75C678.394 307.375 677.044 305.35 674.494 305.35ZM674.419 314.8C672.919 314.8 672.094 313.3 672.094 310.75C672.094 308.2 672.919 306.7 674.419 306.7H674.569C676.069 306.7 676.894 308.2 676.894 310.75C676.894 313.3 676.069 314.8 674.569 314.8H674.419ZM685.738 308.65H687.238C687.163 306.625 685.963 305.35 683.638 305.35C681.538 305.35 680.188 306.475 680.188 308.275C680.188 309.925 680.998 310.795 682.513 311.2L683.638 311.5C685.153 311.905 685.588 312.325 685.588 313.3C685.588 314.2 684.988 314.8 683.713 314.8H683.563C681.988 314.8 681.163 314.05 681.163 312.625H679.663C679.738 314.875 681.013 316.15 683.563 316.15C686.038 316.15 687.088 314.95 687.088 313.225C687.088 311.575 686.203 310.675 684.538 310.225L682.888 309.775C682.048 309.55 681.688 309.1 681.688 308.275C681.688 307.375 682.288 306.7 683.563 306.7H683.713C684.988 306.7 685.663 307.45 685.738 308.65ZM691.732 316H693.232V306.85H696.532V305.5H688.432V306.85H691.732V316ZM707.246 316H708.671V311.95C708.671 310.45 709.646 309.55 710.621 309.55H710.771C711.746 309.55 712.346 310.225 712.346 311.35V316H713.771V311.2C713.771 309.55 712.946 308.35 711.221 308.35C709.871 308.35 708.971 309.1 708.671 309.925V305.5H707.246V316ZM719.72 316H722.72V314.755H720.17C719.72 314.755 719.57 314.605 719.57 314.155V309.73H722.195V308.5H719.57V306.07H718.145V308.5H716.045V309.73H718.145V314.425C718.145 315.475 718.67 316 719.72 316ZM728.714 316H731.714V314.755H729.164C728.714 314.755 728.564 314.605 728.564 314.155V309.73H731.189V308.5H728.564V306.07H727.139V308.5H725.039V309.73H727.139V314.425C727.139 315.475 727.664 316 728.714 316ZM737.618 309.55H737.693C738.818 309.55 739.628 310.45 739.628 312.25C739.628 314.05 738.818 314.95 737.693 314.95H737.618C736.493 314.95 735.653 313.975 735.653 312.25C735.653 310.525 736.493 309.55 737.618 309.55ZM737.993 308.35C737.018 308.35 736.103 308.8 735.578 309.7V308.5H734.228V319H735.653V314.875C736.103 315.7 736.943 316.15 737.918 316.15C739.943 316.15 741.053 314.65 741.053 312.25C741.053 309.85 739.943 308.35 737.993 308.35ZM746.492 316.15C748.217 316.15 749.492 315.25 749.492 313.9C749.492 312.55 748.442 311.95 747.317 311.725L746.192 311.5C745.442 311.35 745.067 310.975 745.067 310.525C745.067 310 745.667 309.55 746.492 309.55H746.642C747.542 309.55 748.142 310.15 748.217 310.825H749.642C749.567 309.55 748.517 308.35 746.567 308.35C744.692 308.35 743.642 309.4 743.642 310.6C743.642 311.875 744.767 312.625 746.117 312.85L746.942 313C747.692 313.15 748.067 313.45 748.067 313.975C748.067 314.575 747.392 314.95 746.642 314.95H746.492C745.592 314.95 744.767 314.5 744.692 313.675H743.267C743.342 315.055 744.467 316.15 746.492 316.15ZM754.541 310.3H756.341V308.5H754.541V310.3ZM754.541 316H756.341V314.2H754.541V316ZM761.661 316H763.161L767.211 305.5H765.711L761.661 316ZM770.655 316H772.155L776.205 305.5H774.705L770.655 316ZM781.899 314.95C781.209 314.95 780.699 314.485 780.699 313.87C780.699 313.18 781.329 312.76 782.199 312.685L784.074 312.535V313.3C784.074 314.2 782.949 314.95 782.049 314.95H781.899ZM781.749 316.15C782.949 316.15 783.849 315.475 784.149 314.8C784.149 314.875 784.149 315.625 784.224 316H785.574C785.499 315.475 785.499 314.8 785.499 314.35V311.2C785.499 309.67 784.449 308.35 782.454 308.35C780.759 308.35 779.514 309.295 779.424 310.675H780.849C780.939 309.925 781.614 309.55 782.424 309.55H782.499C783.474 309.55 784.074 310.15 784.074 311.2V311.44L782.004 311.605C780.789 311.71 779.274 312.22 779.274 313.93C779.274 315.205 780.324 316.15 781.749 316.15ZM791.583 309.55H791.658C792.783 309.55 793.593 310.45 793.593 312.25C793.593 314.05 792.783 314.95 791.658 314.95H791.583C790.458 314.95 789.618 313.975 789.618 312.25C789.618 310.525 790.458 309.55 791.583 309.55ZM791.958 308.35C790.983 308.35 790.068 308.8 789.543 309.7V308.5H788.193V319H789.618V314.875C790.068 315.7 790.908 316.15 791.883 316.15C793.908 316.15 795.018 314.65 795.018 312.25C795.018 309.85 793.908 308.35 791.958 308.35ZM801.207 307.15V305.5H799.632V307.15H801.207ZM803.847 316V314.77H801.132V308.5H797.457V309.73H799.707V314.77H796.992V316H803.847ZM808.506 316H810.306V314.2H808.506V316ZM818.43 316.15C820.305 316.15 821.7 315.1 821.85 313.6H820.425C820.275 314.35 819.555 314.95 818.505 314.95H818.355C817.305 314.95 816.225 314.2 816.225 312.25C816.225 310.6 817.23 309.55 818.43 309.55H818.58C819.405 309.55 820.2 310.075 820.35 310.975H821.775C821.625 309.4 820.155 308.35 818.58 308.35C816.405 308.35 814.8 309.925 814.8 312.25C814.8 314.575 816.255 316.15 818.43 316.15ZM827.395 316.15C829.495 316.15 830.995 314.65 830.995 312.25C830.995 309.925 829.42 308.35 827.395 308.35C825.37 308.35 823.795 309.925 823.795 312.25C823.795 314.65 825.295 316.15 827.395 316.15ZM827.47 314.95H827.32C826.12 314.95 825.22 313.975 825.22 312.25C825.22 310.525 826.12 309.55 827.32 309.55H827.47C828.67 309.55 829.57 310.525 829.57 312.25C829.57 313.975 828.67 314.95 827.47 314.95ZM835.759 316V312.25C835.759 310.75 836.584 309.85 837.934 309.85H839.509V308.425H837.934C836.959 308.425 835.984 309.025 835.684 310.15V308.5H834.334V316H835.759ZM845.218 314.95H845.143C844.018 314.95 843.208 314.05 843.208 312.25C843.208 310.45 844.018 309.55 845.143 309.55H845.218C846.343 309.55 847.183 310.525 847.183 312.25C847.183 313.975 846.343 314.95 845.218 314.95ZM844.843 316.15C845.818 316.15 846.733 315.7 847.258 314.8V316H848.608V305.5H847.183V309.625C846.733 308.8 845.893 308.35 844.918 308.35C842.893 308.35 841.783 309.85 841.783 312.25C841.783 314.65 842.893 316.15 844.843 316.15ZM853.477 316H855.277V314.2H853.477V316ZM863.401 316.15C865.276 316.15 866.671 315.1 866.821 313.6H865.396C865.246 314.35 864.526 314.95 863.476 314.95H863.326C862.276 314.95 861.196 314.2 861.196 312.25C861.196 310.6 862.201 309.55 863.401 309.55H863.551C864.376 309.55 865.171 310.075 865.321 310.975H866.746C866.596 309.4 865.126 308.35 863.551 308.35C861.376 308.35 859.771 309.925 859.771 312.25C859.771 314.575 861.226 316.15 863.401 316.15ZM872.365 316.15C874.465 316.15 875.965 314.65 875.965 312.25C875.965 309.925 874.39 308.35 872.365 308.35C870.34 308.35 868.765 309.925 868.765 312.25C868.765 314.65 870.265 316.15 872.365 316.15ZM872.44 314.95H872.29C871.09 314.95 870.19 313.975 870.19 312.25C870.19 310.525 871.09 309.55 872.29 309.55H872.44C873.64 309.55 874.54 310.525 874.54 312.25C874.54 313.975 873.64 314.95 872.44 314.95ZM877.639 316H879.064V311.65C879.064 310.15 879.334 309.55 880.009 309.55H880.039C880.699 309.55 880.789 310.225 880.789 311.35V316H882.214V311.65C882.214 310.15 882.559 309.55 883.159 309.55H883.189C884.014 309.55 883.939 310.225 883.939 311.35V316H885.364V311.2C885.364 309.55 885.229 308.35 883.654 308.35C882.679 308.35 882.349 308.875 882.049 309.61C881.839 308.815 881.374 308.35 880.564 308.35C879.784 308.35 879.364 308.8 879.064 309.61V308.5H877.639V316ZM887.579 316H889.079L893.129 305.5H891.629L887.579 316ZM900.218 316L902.993 308.5H901.493L899.363 314.5L897.218 308.5H895.718L898.493 316H900.218ZM912.317 316V314.74H909.317V305.5H908.192L905.492 308.125V309.85L907.892 307.525V314.74H904.667V316H912.317ZM914.561 316H916.061L920.111 305.5H918.611L914.561 316ZM929.93 312.25C929.93 309.85 928.82 308.35 926.795 308.35C925.82 308.35 924.98 308.8 924.53 309.625V305.5H923.105V316H924.455V314.8C924.98 315.7 925.895 316.15 926.87 316.15C928.82 316.15 929.93 314.65 929.93 312.25ZM924.53 312.25C924.53 310.525 925.37 309.55 926.495 309.55H926.57C927.695 309.55 928.505 310.45 928.505 312.25C928.505 314.05 927.695 314.95 926.57 314.95H926.495C925.37 314.95 924.53 313.975 924.53 312.25ZM934.799 314.95C934.109 314.95 933.599 314.485 933.599 313.87C933.599 313.18 934.229 312.76 935.099 312.685L936.974 312.535V313.3C936.974 314.2 935.849 314.95 934.949 314.95H934.799ZM934.649 316.15C935.849 316.15 936.749 315.475 937.049 314.8C937.049 314.875 937.049 315.625 937.124 316H938.474C938.399 315.475 938.399 314.8 938.399 314.35V311.2C938.399 309.67 937.349 308.35 935.354 308.35C933.659 308.35 932.414 309.295 932.324 310.675H933.749C933.839 309.925 934.514 309.55 935.324 309.55H935.399C936.374 309.55 936.974 310.15 936.974 311.2V311.44L934.904 311.605C933.689 311.71 932.174 312.22 932.174 313.93C932.174 315.205 933.224 316.15 934.649 316.15ZM944.573 316H947.573V314.755H945.023C944.573 314.755 944.423 314.605 944.423 314.155V309.73H947.048V308.5H944.423V306.07H942.998V308.5H940.898V309.73H942.998V314.425C942.998 315.475 943.523 316 944.573 316ZM953.343 316.15C955.218 316.15 956.613 315.1 956.763 313.6H955.338C955.188 314.35 954.468 314.95 953.418 314.95H953.268C952.218 314.95 951.138 314.2 951.138 312.25C951.138 310.6 952.143 309.55 953.343 309.55H953.493C954.318 309.55 955.113 310.075 955.263 310.975H956.688C956.538 309.4 955.068 308.35 953.493 308.35C951.318 308.35 949.713 309.925 949.713 312.25C949.713 314.575 951.168 316.15 953.343 316.15ZM959.082 316H960.507V311.95C960.507 310.45 961.482 309.55 962.457 309.55H962.607C963.582 309.55 964.182 310.225 964.182 311.35V316H965.607V311.2C965.607 309.55 964.782 308.35 963.057 308.35C961.707 308.35 960.807 309.1 960.507 309.925V305.5H959.082V316Z" fill="black"/>
<rect x="33.5" y="181.5" width="85" height="39" rx="5.5" fill="#71BC8F" stroke="black"/>
<rect x="133.5" y="181.5" width="85" height="39" rx="5.5" fill="#EF927B" stroke="black"/>
<path d="M49.2 208.2C50.84 208.2 52.1 207.3 52.5 206.4C52.5 206.64 52.52 207.52 52.6 208H54.2C54.1 207.3 54.1 206.4 54.1 205.8V201.6C54.1 199.56 52.76 197.8 50.12 197.8C47.9 197.8 46.26 199.04 46.14 200.86H47.84C47.96 199.78 48.92 199.24 50.04 199.24H50.18C51.56 199.24 52.4 200.1 52.4 201.6V201.94L49.52 202.18C47.92 202.3 45.94 202.98 45.94 205.24C45.94 206.94 47.34 208.2 49.2 208.2ZM49.38 206.76C48.38 206.76 47.64 206.08 47.64 205.16C47.64 204.18 48.52 203.58 49.78 203.48L52.4 203.28V204.4C52.4 205.7 50.84 206.76 49.56 206.76H49.38ZM58.7869 212V206.54C59.3069 207.5 60.5869 208.2 61.9669 208.2C64.4869 208.2 66.4469 206.26 66.4469 203C66.4469 199.74 64.6269 197.8 62.0869 197.8C60.7269 197.8 59.3069 198.5 58.7869 199.46V198H57.0869V212H58.7869ZM61.7269 206.76C60.0669 206.76 58.7869 205.32 58.7869 203C58.7869 200.68 60.0669 199.24 61.7269 199.24H61.8669C63.5869 199.24 64.7469 200.68 64.7469 203C64.7469 205.32 63.5869 206.76 61.8669 206.76H61.7269ZM70.6228 212V206.54C71.1428 207.5 72.4228 208.2 73.8028 208.2C76.3228 208.2 78.2828 206.26 78.2828 203C78.2828 199.74 76.4628 197.8 73.9228 197.8C72.5628 197.8 71.1428 198.5 70.6228 199.46V198H68.9228V212H70.6228ZM73.5628 206.76C71.9028 206.76 70.6228 205.32 70.6228 203C70.6228 200.68 71.9028 199.24 73.5628 199.24H73.7028C75.4228 199.24 76.5828 200.68 76.5828 203C76.5828 205.32 75.4228 206.76 73.7028 206.76H73.5628ZM88.6788 209.5V208H79.8188V209.5H88.6788ZM92.6173 196.2V194.16H90.7173V196.2H92.6173ZM92.5173 208V198H90.8173V208H92.5173ZM99.343 208.2C100.703 208.2 102.123 207.5 102.663 206.54V208H104.363V194H102.663V199.46C102.123 198.5 100.843 197.8 99.483 197.8C96.943 197.8 94.983 199.74 94.983 203C94.983 206.26 96.803 208.2 99.343 208.2ZM99.563 206.76C97.843 206.76 96.703 205.32 96.703 203C96.703 200.68 97.843 199.24 99.563 199.24H99.703C101.383 199.24 102.663 200.68 102.663 203C102.663 205.32 101.383 206.76 99.703 206.76H99.563Z" fill="black"/>
<path d="M153.22 208.2C156.3 208.2 158.3 206.68 158.3 204.22C158.3 202 156.94 200.76 154.56 200.28L152.32 199.84C151.06 199.58 150.26 198.92 150.26 197.78C150.26 196.44 151.48 195.44 153.3 195.44H153.5C155.28 195.44 156.6 196.48 156.72 198.16H158.52C158.42 195.48 156.46 193.8 153.4 193.8C150.38 193.8 148.46 195.6 148.46 197.8C148.46 199.96 149.74 201.18 151.94 201.64L154.18 202.1C155.74 202.42 156.5 203.1 156.5 204.3C156.5 205.56 155.44 206.56 153.48 206.56H153.28C151.1 206.56 149.56 205.5 149.56 203.54H147.76C147.82 206.58 149.9 208.2 153.22 208.2ZM165.021 208.2C167.081 208.2 168.761 207.08 169.141 205.08H167.441C167.181 206.22 166.261 206.76 165.161 206.76H165.001C163.641 206.76 162.181 205.7 162.101 203.24H169.161V202.24C169.161 199.64 167.541 197.8 164.981 197.8C162.641 197.8 160.401 199.5 160.401 202.98C160.401 206.46 162.541 208.2 165.021 208.2ZM162.181 201.86C162.521 199.88 163.781 199.24 164.901 199.24H165.061C166.361 199.24 167.381 200.12 167.461 201.86H162.181ZM175.805 208.2C178.045 208.2 179.585 206.86 179.845 204.74H178.145C177.945 205.9 177.105 206.76 175.905 206.76H175.725C173.725 206.76 172.785 205 172.785 203C172.785 201 173.725 199.24 175.725 199.24H175.905C177.105 199.24 177.945 200.08 178.145 201.26H179.845C179.645 199.12 178.045 197.8 175.805 197.8C172.765 197.8 171.085 200.06 171.085 203C171.085 205.94 172.765 208.2 175.805 208.2ZM183.951 208V203C183.951 200.84 185.071 199.52 186.911 199.52H187.711V197.9H186.811C185.491 197.9 184.271 198.7 183.851 200.22V198H182.251V208H183.951ZM193.302 208.2C195.362 208.2 197.042 207.08 197.422 205.08H195.722C195.462 206.22 194.542 206.76 193.442 206.76H193.282C191.922 206.76 190.462 205.7 190.382 203.24H197.442V202.24C197.442 199.64 195.822 197.8 193.262 197.8C190.922 197.8 188.682 199.5 188.682 202.98C188.682 206.46 190.822 208.2 193.302 208.2ZM190.462 201.86C190.802 199.88 192.062 199.24 193.182 199.24H193.342C194.642 199.24 195.662 200.12 195.742 201.86H190.462ZM205.27 208V206.5H203.33C202.73 206.5 202.53 206.3 202.53 205.7V199.46H204.97V198H202.53V194.76H200.83V198H198.59V199.46H200.83V205.94C200.83 207.3 201.57 208 202.93 208H205.27Z" fill="black"/>
<path d="M75.6464 259.354C75.8417 259.549 76.1583 259.549 76.3536 259.354L79.5355 256.172C79.7308 255.976 79.7308 255.66 79.5355 255.464C79.3403 255.269 79.0237 255.269 78.8284 255.464L76 258.293L73.1716 255.464C72.9763 255.269 72.6597 255.269 72.4645 255.464C72.2692 255.66 72.2692 255.976 72.4645 256.172L75.6464 259.354ZM75.5 221L75.5 259L76.5 259L76.5 221L75.5 221Z" fill="black"/>
<path d="M175.646 259.354C175.842 259.549 176.158 259.549 176.354 259.354L179.536 256.172C179.731 255.976 179.731 255.66 179.536 255.464C179.34 255.269 179.024 255.269 178.828 255.464L176 258.293L173.172 255.464C172.976 255.269 172.66 255.269 172.464 255.464C172.269 255.66 172.269 255.976 172.464 256.172L175.646 259.354ZM175.5 221L175.5 259L176.5 259L176.5 221L175.5 221Z" fill="black"/>
<path d="M249.354 312.354C249.549 312.158 249.549 311.842 249.354 311.646L246.172 308.464C245.976 308.269 245.66 308.269 245.464 308.464C245.269 308.66 245.269 308.976 245.464 309.172L248.293 312L245.464 314.828C245.269 315.024 245.269 315.34 245.464 315.536C245.66 315.731 245.976 315.731 246.172 315.536L249.354 312.354ZM227 312.5L249 312.5L249 311.5L227 311.5L227 312.5Z" fill="black"/>
<path d="M644.354 312.354C644.549 312.158 644.549 311.842 644.354 311.646L641.172 308.464C640.976 308.269 640.66 308.269 640.464 308.464C640.269 308.66 640.269 308.976 640.464 309.172L643.293 312L640.464 314.828C640.269 315.024 640.269 315.34 640.464 315.536C640.66 315.731 640.976 315.731 641.172 315.536L644.354 312.354ZM622 312.5L644 312.5L644 311.5L622 311.5L622 312.5Z" fill="black"/>
</g>
<defs>
<clipPath id="clip0_406_3510">
<rect width="1000" height="600" fill="white"/>
</clipPath>
</defs>
</svg>
